<svg width="25" height="25" viewBox="0 0 25 25" fill="none" xmlns="http://www.w3.org/2000/svg">
<path d="M7.29927 12.4999C7.29927 12.0685 7.64905 11.7187 8.08052 11.7187H11.7187V8.08051C11.7187 7.64904 12.0684 7.29926 12.4999 7.29926C12.9314 7.29926 13.2812 7.64904 13.2812 8.08051V11.7187H16.9194C17.3508 11.7187 17.7006 12.0685 17.7006 12.4999C17.7006 12.9314 17.3508 13.2812 16.9194 13.2812H13.2812V16.9193C13.2812 17.3508 12.9314 17.7006 12.4999 17.7006C12.0684 17.7006 11.7187 17.3508 11.7187 16.9193V13.2812H8.08052C7.64905 13.2812 7.29927 12.9314 7.29927 12.4999Z" fill="#035BA0"/>
<path fill-rule="evenodd" clip-rule="evenodd" d="M7.62151 3.92572C10.8377 3.56626 14.1621 3.56626 17.3783 3.92572C19.2808 4.13835 20.8171 5.63694 21.0409 7.55044C21.4255 10.8389 21.4255 14.161 21.0409 17.4494C20.8171 19.3629 19.2808 20.8615 17.3783 21.0742C14.1621 21.4336 10.8377 21.4336 7.6215 21.0742C5.71902 20.8615 4.18267 19.3629 3.95887 17.4494C3.57426 14.161 3.57426 10.8389 3.95887 7.55044C4.18267 5.63694 5.71903 4.13835 7.62151 3.92572ZM17.2047 5.47855C14.1039 5.13199 10.8959 5.13199 7.79506 5.47855C6.60294 5.61179 5.64872 6.55267 5.51079 7.73195C5.14028 10.8998 5.14028 14.1001 5.51079 17.2679C5.64872 18.4472 6.60294 19.3881 7.79506 19.5213C10.8959 19.8679 14.1039 19.8679 17.2047 19.5213C18.3968 19.3881 19.3511 18.4472 19.489 17.2679C19.8595 14.1001 19.8595 10.8998 19.489 7.73195C19.3511 6.55267 18.3968 5.61179 17.2047 5.47855Z" fill="#035BA0"/>
</svg>
