<svg width="479" height="282" viewBox="0 0 479 282" fill="none" xmlns="http://www.w3.org/2000/svg">
<g opacity="0.4">
<path opacity="0.4" d="M318.864 162.862C335.206 121.131 368.078 85.8762 409.067 67.3708C420.839 62.0681 434.111 58.2117 447.086 60.6004C457.842 62.579 468.1 68.7594 472.67 78.9978C481.948 99.7912 475.446 124.952 458.894 139.96C442.343 154.969 418.468 161.243 396.538 158.667C395.097 158.502 395.097 160.761 396.538 160.926C417.177 163.358 439.258 157.969 455.888 145.371C474.191 131.499 482.662 109.044 477.515 86.5093C475.15 76.2062 469.506 67.7665 460.048 62.7013C449.516 57.0677 437.261 56.6216 425.792 59.219C413.191 62.0969 401.239 68.1335 390.252 74.796C356.827 95.1557 331.001 125.88 316.723 162.272C316.189 163.625 318.374 164.215 318.886 162.869L318.864 162.862Z" fill="#659FEB"/>
<path opacity="0.4" d="M326.779 163.229C347.821 128.492 377.053 96.5175 415.49 83.25C422.85 80.7102 430.628 78.8755 438.392 79.6525C446.156 80.4296 453.884 84.1781 458.015 90.7687C462.059 97.2441 462.145 105.497 460.264 112.872C456.933 125.887 448.009 136.96 437.239 145.04C426.469 153.12 413.947 158.48 401.325 163.114" fill="#659FEB"/>
<path opacity="0.4" d="M327.76 163.833C344.758 135.888 366.737 109.655 395.652 93.4596C410.069 85.3581 430.629 75.8392 447.079 83.1205C466.002 91.481 461.324 114.584 451.859 128.449C439.986 145.839 420.14 154.976 401.022 162.063C399.667 162.56 400.258 164.747 401.628 164.222C419.563 157.588 437.83 149.343 450.266 134.276C460.048 122.419 468.554 102.094 457.604 88.2649C445.428 72.8965 423.11 78.5949 407.864 84.984C391.442 91.8479 376.707 102.187 363.839 114.397C348.896 128.578 336.461 145.126 325.806 162.66C325.049 163.905 327.003 165.042 327.76 163.797V163.833Z" fill="#659FEB"/>
<path opacity="0.4" d="M291.715 225.213C294.512 240.056 301.087 254.072 312.837 263.951C322.598 272.167 334.759 276.902 347.23 279.168C361.309 281.686 377.824 282.658 390.98 276.247C407.272 268.332 410.92 250.194 417.263 234.941C424.984 216.385 437.282 196.635 457.719 190.742C459.118 190.339 458.527 188.159 457.121 188.584C441.391 193.117 430.513 205.362 422.627 219.141C418.59 226.258 415.161 233.703 412.376 241.395C409.319 249.734 406.501 258.569 400.842 265.577C389.899 279.11 371.286 279.679 355.304 278.053C342.674 276.765 330.016 273.203 319.397 266.08C305.08 256.49 297.05 241.265 293.914 224.638C293.64 223.199 291.463 223.81 291.751 225.235L291.715 225.213Z" fill="#659FEB"/>
<path opacity="0.4" d="M303.076 163.912C303.076 164.128 303.026 164.34 302.928 164.532C302.83 164.724 302.688 164.89 302.514 165.017C302.34 165.144 302.138 165.228 301.925 165.262C301.712 165.297 301.494 165.28 301.289 165.215C293.474 141.752 294.649 116.426 293.467 91.7256C292.285 67.0254 287.996 40.9366 271.754 22.2729C264.855 14.3585 255.419 7.88307 244.909 7.38662C234.398 6.89017 223.232 13.7829 221.43 24.1364C220.752 28.1008 221.43 32.1516 221.732 36.1591C222.267 43.4297 221.508 50.7374 219.491 57.7439C218.827 60.0319 217.969 62.3775 216.218 63.9891C211.539 68.3061 203.855 65.09 197.77 66.9606C193.625 68.2341 190.562 71.8316 188.637 75.7097C184.953 83.1133 184.629 91.9055 186.669 99.9206C188.709 107.936 192.962 115.246 198.023 121.793C212.974 140.958 234.565 153.849 258.555 157.933" fill="#659FEB"/>
<path opacity="0.4" d="M301.988 163.617C301.75 163.768 301.519 163.927 301.267 164.085L302.363 164.912C292.696 135.277 296.971 103.835 292.991 73.3714C289.863 49.3475 280.448 19.69 256.227 9.0343C246.041 4.55186 233.757 5.4872 225.69 13.6966C223.827 15.5956 222.362 17.8462 221.38 20.317C220.399 22.7878 219.92 25.4291 219.974 28.0865C219.974 32.1372 220.695 36.152 220.731 40.2027C220.762 44.6453 220.303 49.0778 219.361 53.4198C218.597 56.9309 217.825 61.3846 214.711 63.6007C211.597 65.8167 207.409 65.1404 203.833 65.1116C198.174 65.0756 193.582 66.6801 190.021 71.2489C181.789 81.811 183.331 97.1075 188.579 108.576C200.834 135.464 229.706 154.055 258.209 158.991C259.651 159.236 260.249 157.056 258.815 156.833C233.764 152.516 210.458 138.219 196.062 117.16C188.089 105.49 182.863 89.7254 189.618 76.2493C191.124 73.2419 193.301 70.3063 196.365 68.7234C199.429 67.1406 203.084 67.3996 206.457 67.4643C210.826 67.5507 215.389 67.1981 218.172 63.392C221.632 58.6721 222.331 51.3333 222.8 45.6853C223.073 42.2924 223.073 38.883 222.8 35.4901C222.482 31.5185 221.79 27.4245 222.699 23.4745C225.64 10.6819 241.031 6.27864 252.255 9.90488C264.769 13.9556 274.018 25.0934 279.951 36.3463C285.984 47.7934 289.084 60.6076 290.764 73.3714C294.794 104.036 290.468 135.665 300.2 165.51C300.269 165.746 300.412 165.955 300.608 166.105C300.803 166.255 301.042 166.339 301.289 166.344C302.918 166.344 303.689 165.733 304.172 164.186C304.612 162.797 302.428 162.2 302.01 163.589L301.988 163.617Z" fill="#659FEB"/>
<path opacity="0.4" d="M212.224 53.7868C189.877 52.3046 174.27 73.7383 176.253 94.5748C178.509 118.246 197.511 134.73 218.532 142.918C219.887 143.45 220.478 141.263 219.13 140.759C199.587 133.147 181.645 118.009 178.704 96.1505C177.312 85.797 179.763 75.0334 186.77 67.0902C193.193 59.8017 202.42 55.3768 212.224 56.0244C213.666 56.1251 213.666 53.8659 212.224 53.7724V53.7868Z" fill="#659FEB"/>
<path opacity="0.4" d="M253.826 147.501C240.36 144.04 217.927 151.487 204.021 151.926C190.115 152.364 175.82 156.919 166.283 167.035C162.015 171.561 158.771 178.453 161.864 183.842C163.092 185.787 164.81 187.377 166.845 188.454C177.507 194.656 190.966 192.124 203.019 194.75C208.065 195.851 213.472 198.506 214.827 203.47C216.535 209.722 210.927 216.378 212.989 222.522C214.156 226.019 217.674 228.357 221.315 228.998C224.955 229.638 228.704 228.926 232.25 227.89C240.512 225.479 248.405 221.364 254.353 215.147C260.3 208.931 264.135 200.506 263.854 191.922C263.637 185.404 286.129 151.292 283.317 145.393" fill="#659FEB"/>
<path opacity="0.4" d="M254.129 146.407C243.424 143.867 231.839 146.594 221.235 148.472C215.526 149.487 209.824 150.515 204.021 150.796C198.054 151.007 192.139 151.974 186.417 153.674C176.079 156.89 163.752 163.855 160.234 174.82C156.212 187.346 170.442 192.462 180.239 193.671C190.281 194.908 217.004 192.39 213.637 209.19C212.657 214.025 210.033 219.004 212.325 223.889C214.452 228.408 219.62 230.43 224.364 230.408C236.049 230.35 249.335 223.026 256.717 214.234C260.687 209.613 263.378 204.038 264.524 198.06C265.137 194.592 264.755 191.375 266.052 188.066C269.383 179.554 274.306 171.618 278.394 163.459C280.272 159.846 281.94 156.127 283.389 152.321C284.146 150.242 285.314 147.285 284.413 145.09C283.879 143.759 281.688 144.335 282.25 145.688C282.971 147.429 281.897 149.825 281.313 151.444C280.108 154.675 278.712 157.832 277.132 160.898C273.758 167.74 270.031 174.403 266.672 181.245C265.456 183.594 264.387 186.016 263.471 188.497C262.412 191.598 262.844 194.771 262.239 197.973C259.766 211.046 248.902 220.429 237.008 225.077C231.205 227.343 223.455 229.983 217.688 226.372C211.201 222.306 214.625 215.529 215.865 209.73C218.027 199.657 209.932 194.62 201.022 193.181C189.711 191.304 174.047 194.066 164.891 185.627C158.786 180 163.132 171.805 167.919 166.992C172.08 162.896 177.015 159.665 182.438 157.487C193.705 152.818 205.844 153.379 217.674 151.364C229.208 149.4 241.932 145.788 253.581 148.558C255.023 148.897 255.599 146.717 254.179 146.4L254.129 146.407Z" fill="#659FEB"/>
<path opacity="0.4" d="M211.042 194.937C211.417 199.031 209.723 203.146 208.317 206.909C206.702 211.226 204.821 215.5 203.754 219.99C203.033 222.939 202.629 226.134 203.869 228.998C205.722 233.279 209.636 236.416 213.803 238.286C233.814 247.273 256.875 233.372 267.523 216.543C274.731 205.182 277.954 191.843 278.999 178.568C279.114 177.129 276.836 177.129 276.735 178.568C275.07 199.765 266.852 221.875 247.446 232.904C238.731 237.855 227.838 240.337 218.013 237.452C213.176 236.013 208.036 233.005 205.989 228.163C204.583 224.839 205.7 221.04 206.709 217.752C208.959 210.557 213.99 202.686 213.284 194.937C213.154 193.498 210.883 193.498 211.02 194.937H211.042Z" fill="#659FEB"/>
<path opacity="0.4" d="M279.28 153.314C283.231 163.222 302.954 228.473 308.368 237.66C311.842 243.553 315.67 249.359 320.767 253.928C326.39 258.965 333.31 262.289 340.23 265.239C350.078 269.412 361.734 272.88 371.07 267.671C379.122 263.181 382.842 253.23 382.496 244.028C382.15 234.826 369.664 159.286 366.038 150.818" fill="#659FEB"/>
<path opacity="0.4" d="M278.184 153.616C284.391 169.337 288.825 185.878 294.109 201.923C299.724 218.982 304.273 237.596 316.564 251.309C321.826 257.173 328.538 261.188 335.646 264.44C342.263 267.462 349.184 270.325 356.457 271.182C370.572 272.844 381.292 263.821 383.317 249.992C384.226 243.769 383 237.473 382.113 231.286C380.801 222.148 379.331 213.025 377.788 203.945C375.907 192.706 373.939 181.468 371.747 170.28C370.486 163.804 369.649 156.645 367.112 150.523C366.564 149.199 364.373 149.803 364.949 151.12C366.896 155.804 367.624 161.193 368.633 166.107C370.442 174.942 372.05 183.828 373.607 192.728C376.426 208.866 379.468 225.105 381.176 241.409C382.344 252.511 377.896 265.469 365.959 268.512C358.216 270.484 349.969 267.944 342.782 265.073C335.112 262.015 327.255 258.382 321.156 252.734C307.647 240.272 303.026 221.601 297.468 204.808C291.715 187.576 287.022 169.863 280.369 153.041C279.842 151.703 277.651 152.285 278.206 153.638L278.184 153.616Z" fill="#659FEB"/>
<path opacity="0.4" d="M354.699 128.132C359.55 119.167 364.452 110.073 366.853 100.173C369.253 90.2723 368.914 79.3072 363.702 70.5366C362.748 68.7263 361.333 67.198 359.601 66.1045C357.813 65.1116 355.434 64.9821 353.834 66.234C352.522 67.2485 351.959 68.9393 351.462 70.551L347.764 82.437C347.582 83.2677 347.198 84.0411 346.647 84.689C345.255 86.0704 342.819 85.4661 341.334 84.1926C339.849 82.9191 338.883 81.1275 337.39 79.8756C333.505 76.5659 327.082 78.0121 323.694 81.8542C320.306 85.6963 329.18 150.58 329.367 155.674" fill="#659FEB"/>
<path opacity="0.4" d="M355.672 128.7C364.596 112.21 374.58 92.4739 366.485 73.616C365.043 70.1984 362.88 66.1405 359.197 64.7087C357.921 64.1461 356.49 64.0422 355.147 64.4148C353.803 64.7874 352.631 65.6134 351.829 66.752C349.177 70.6157 348.47 76.3788 347.043 80.7893C346.925 81.4789 346.701 82.1463 346.38 82.7679C345.885 83.2143 345.291 83.5376 344.647 83.7114C344.003 83.8852 343.327 83.9046 342.674 83.768C341.542 83.4227 340.512 81.6096 339.791 80.739C338.714 79.3503 337.306 78.2522 335.696 77.5444C331.508 75.8968 323.931 77.5444 322.281 82.2643C321.286 85.1423 321.798 88.9124 321.913 91.8479C322.374 103.568 323.729 115.275 325.027 126.923C326.087 136.435 327.817 146.062 328.257 155.631C328.321 157.07 330.585 157.07 330.52 155.631C330.21 148.933 329.042 142.198 328.271 135.543C327.009 124.635 325.784 113.728 324.89 102.784C324.522 98.2946 324.169 93.7906 324.104 89.2794C324.068 87.3079 323.643 84.2861 324.623 82.4729C326.973 78.156 334.478 78.4294 337.426 81.4441C339.589 83.6457 341.384 86.9122 344.974 86.5597C352.63 85.797 349.645 62.2912 359.024 67.0758C363.392 69.3062 365.425 76.163 366.362 80.5951C367.426 86.0093 367.426 91.5781 366.362 96.9923C364.344 107.943 358.952 117.858 353.704 127.556C352.983 128.837 354.965 129.981 355.657 128.7H355.672Z" fill="#659FEB"/>
</g>
<path d="M152.881 78.6092C178.595 98.9996 222.713 66.8455 222.713 66.8455L231.767 59.0462C242.753 54.1824 246.372 50.3691 246.372 50.3691L239.235 53.6428L247.742 46.9299C247.972 46.7428 246.978 46.8795 246.718 47.0162L238.788 51.1533L246.985 43.8793C247.029 43.8478 247.058 43.8001 247.067 43.7468C247.076 43.6935 247.063 43.6389 247.032 43.5951C247 43.5512 246.952 43.5216 246.899 43.5128C246.846 43.504 246.791 43.5168 246.747 43.5483L236.928 48.9301C236.928 48.9301 244.635 41.8215 243.416 42.0086C242.198 42.1956 232.055 49.2611 232.055 49.2611C232.055 49.2611 236.244 42.469 234.975 42.836C234.153 43.0734 230.938 47.1529 228.79 50.0309C227.398 51.8656 227.788 52.4916 225.784 53.6644L211.193 62.2983C198.938 69.7954 177.218 75.5082 160.89 62.0393C160.89 62.0393 154.655 58.7656 149.291 65.3489C143.928 71.9323 152.881 78.6092 152.881 78.6092Z" fill="#FFA47A" stroke="#FFA47A" stroke-width="1.08671" stroke-linecap="round" stroke-linejoin="round"/>
<path d="M190.555 69.2198C180.758 70.5437 172.994 67.5794 160.898 62.0249C160.898 62.0249 154.662 58.7512 149.299 65.3346C143.935 71.9179 152.903 78.6164 152.903 78.6164C161.554 85.4732 167.277 88.7684 177.716 86.9625L190.555 69.2198Z" fill="#8AB5E1" stroke="#8AB5E1" stroke-width="0.440558" stroke-miterlimit="10"/>
<path d="M190.618 69.1694L185.435 84.545C183.301 85.026 181.131 85.334 178.947 85.466L190.618 69.1694Z" fill="#035BA0"/>
<path d="M226.577 52.4484C227.009 53.1679 227.348 54.2687 226.88 54.5565C226.411 54.8443 225.315 54.1967 224.883 53.506" fill="#035BA0"/>
<path d="M233.706 47.4839C233.706 47.4839 232.553 50.7648 232.56 50.6712L237.145 45.2247L233.706 47.4839Z" fill="#035BA0"/>
<path d="M145.903 1.04779C153.552 3.42931 172.641 29.1584 172.641 29.1584C175.95 32.1995 178.257 36.1708 179.258 40.548C179.568 42.174 178.472 46.9586 177.175 47.9587L151.757 68.5722C151.757 68.5722 131.291 61.3341 136.222 45.5484C141.153 29.7628 145.377 33.1732 142.904 24.1507C140.432 15.1283 145.903 1.04779 145.903 1.04779Z" fill="#00043B"/>
<path d="M178.141 38.7708C176.44 34.2812 174.774 29.7628 172.259 25.6473C169.769 21.759 167.028 18.0361 164.055 14.5023C159.557 8.90467 153.927 4.63808 148.405 0.112468C147.951 -0.261668 147.295 0.385875 147.756 0.767207C152.867 4.96185 158.223 8.91907 162.476 14.0275C165.497 17.5716 168.299 21.2959 170.867 25.1796C173.65 29.4966 175.445 34.2596 177.254 39.0299C177.463 39.5839 178.35 39.3464 178.141 38.7852V38.7708Z" fill="#00043B"/>
<path d="M161.416 41.656C161.385 41.6938 161.345 41.7242 161.3 41.7451C161.255 41.766 161.206 41.7768 161.157 41.7768C161.107 41.7768 161.059 41.766 161.014 41.7451C160.969 41.7242 160.929 41.6938 160.897 41.656C160.321 40.9869 158.785 39.5767 156.896 41.0372C155.008 42.4978 157.048 45.1096 157.617 46.3255C158.432 48.1027 159.059 53.5204 157.149 57.9453C155.786 61.1471 150.279 66.8311 150.279 66.8311C150.279 66.8311 157.819 75.2563 163.341 71.5725C163.341 71.5725 163.889 59.7081 165.713 57.3625C165.749 57.3122 170.442 60.1254 175.762 52.1678C180.772 44.6707 175.812 39.9868 174.608 39.0227C173.585 38.2096 168.935 33.8063 161.416 41.656Z" fill="#FFA47A"/>
<path d="M163.731 66.7664C163.543 66.7664 155.988 70.4718 155.988 70.4718C155.988 70.4718 159.47 74.0117 163.327 71.5726L163.731 66.7664Z" fill="#035BA0"/>
<path d="M174.025 54.0385L169.8 51.6785C169.8 51.6785 169.721 54.2975 171.062 54.7652C172.403 55.2328 174.025 54.0385 174.025 54.0385Z" fill="white"/>
<path d="M160.198 42.7352C159.636 42.1668 158.562 41.8934 157.992 42.4546C157.737 42.7931 157.61 43.2114 157.635 43.6346C157.66 44.0578 157.835 44.4582 158.129 44.7642" fill="#035BA0"/>
<path d="M173.837 50.3907L172.396 52.3981L173.563 52.9089C173.612 52.9322 173.666 52.9421 173.719 52.9378C173.773 52.9334 173.824 52.9149 173.868 52.8842C173.912 52.8534 173.947 52.8115 173.97 52.7627C173.992 52.714 174.001 52.6601 173.996 52.6067L173.837 50.3907Z" fill="#035BA0"/>
<path d="M177.997 42.6633C177.997 42.6633 165.742 45.2535 160.897 41.656C156.053 38.0585 168.575 28.6476 173.26 34.2308C177.946 39.8141 177.997 42.6633 177.997 42.6633Z" fill="#00043B"/>
<path d="M165.734 57.3481C163.897 56.3847 162.403 54.8765 161.46 53.0312C160.609 51.3044 160.609 59.6649 164.379 61.6291C164.379 61.6651 165.05 59.3699 165.734 57.3481Z" fill="#035BA0"/>
<path d="M172.215 45.678C171.682 45.7427 172.936 44.8505 173.535 44.9585C173.809 45.0044 174.054 45.1562 174.217 45.381C174.381 45.6058 174.449 45.8856 174.407 46.16C173.755 45.7495 172.98 45.579 172.215 45.678Z" fill="#00043B"/>
<path d="M177.816 47.4191C177.613 47.2209 177.34 47.11 177.056 47.11C176.772 47.11 176.499 47.2209 176.295 47.4191C176.798 47.6097 177.247 47.9211 177.6 48.3257" fill="#00043B"/>
<path d="M172.158 49.0884C171.97 49.4841 171.97 49.8726 172.158 49.959C172.345 50.0453 172.655 49.8079 172.879 49.4193C173.102 49.0308 173.066 48.6423 172.879 48.5487C172.691 48.4552 172.345 48.7142 172.158 49.0884Z" fill="#00043B"/>
<path d="M174.847 50.3907C174.666 50.7649 174.666 51.1102 174.847 51.2253C175.027 51.3404 175.315 51.0814 175.495 50.7073C175.676 50.3332 175.676 49.9878 175.495 49.8727C175.315 49.7576 175.027 50.0166 174.847 50.3907Z" fill="#00043B"/>
<path opacity="0.37" d="M164.61 49.3114C164.47 49.7556 164.465 50.2313 164.596 50.6783C164.727 51.1253 164.987 51.5235 165.345 51.8224C165.703 52.1213 166.142 52.3075 166.605 52.3575C167.069 52.4074 167.538 52.3188 167.951 52.1029C168.364 51.887 168.704 51.5536 168.928 51.1447C169.151 50.7358 169.248 50.27 169.206 49.8062C169.164 49.3424 168.985 48.9015 168.692 48.5393C168.398 48.1772 168.004 47.91 167.558 47.7717C166.963 47.5888 166.319 47.648 165.767 47.9363C165.215 48.2246 164.799 48.7188 164.61 49.3114Z" fill="#E8632E" stroke="#E8632E" stroke-width="0.234964" stroke-miterlimit="10"/>
<path d="M159.074 39.0155C161.676 41.9726 163.911 45.275 168.243 45.2319C172.189 45.1862 176.002 43.8035 179.057 41.3106C179.424 40.9941 178.891 40.4616 178.523 40.7782C175.597 43.1251 171.968 44.427 168.215 44.4764C164.163 44.5196 161.986 41.2243 159.564 38.483C159.24 38.1233 158.706 38.6557 159.031 39.0155H159.074Z" fill="#00043B"/>
<path d="M52.2542 76.3932C51.3963 70.7092 50.8845 56.6647 50.8845 56.6647L26.5044 57.9813C29.6042 59.4779 40.5038 66.2411 40.5038 66.2411L42.4286 77.0335C42.4286 77.0335 52.2614 76.2924 52.2542 76.3932Z" fill="#FFA47A"/>
<path d="M40.4387 66.2267L26.1726 58.2691C26.0302 58.1934 25.9153 58.075 25.8439 57.9307C25.7725 57.7863 25.7482 57.6233 25.7745 57.4645C25.8007 57.3056 25.8762 57.159 25.9903 57.0452C26.1044 56.9314 26.2513 56.8562 26.4105 56.8301C32.3217 55.9164 48.2675 53.5708 52.463 52.9664C52.5821 52.95 52.7033 52.9618 52.817 53.0009C52.9306 53.04 53.0334 53.1054 53.117 53.1916C53.2006 53.2778 53.2626 53.3825 53.298 53.4972C53.3334 53.6118 53.3412 53.7332 53.3208 53.8514C52.8739 56.6862 52.2683 64.5575 51.8791 66.8598C51.8142 67.2196 47.1429 61.4133 45.5065 62.3558C44.0936 63.1617 40.5613 66.1907 40.4387 66.2267Z" fill="#659FEB" stroke="#659FEB" stroke-width="0.234964" stroke-miterlimit="10"/>
<path d="M39.5955 65.8238L41.8447 62.8091C41.9715 62.6388 42.0634 62.4451 42.115 62.2392C42.1667 62.0333 42.1771 61.8192 42.1456 61.6093C42.1141 61.3994 42.0414 61.1977 41.9316 61.0159C41.8218 60.8341 41.6771 60.6758 41.5059 60.5499V60.5499C41.3356 60.423 41.1419 60.3308 40.9359 60.2787C40.7298 60.2266 40.5155 60.2156 40.3052 60.2463C40.0949 60.2771 39.8928 60.349 39.7104 60.4579C39.528 60.5667 39.3689 60.7105 39.2423 60.8809L36.7192 64.2625" stroke="#F8F1EE" stroke-width="0.52867" stroke-miterlimit="10"/>
<path d="M47.7918 69.7954C47.9432 73.1986 48.1667 76.5946 48.1667 76.5946L52.4199 76.3931L51.872 66.8599C51.872 66.8599 48.3902 62.9242 47.8351 62.9674C47.554 62.9674 47.6405 66.3922 47.7918 69.7954Z" fill="#035BA0"/>
<path d="M34.7728 122.103C30.9882 118.347 27.254 106.907 27.254 106.907C27.254 106.907 1.38169 114.569 1.61237 114.641L17.3131 120.498L26.7782 127.585C26.7782 127.585 33.9438 122.484 34.7728 122.103Z" fill="#FFA47A" stroke="#FFA47A" stroke-width="0.954543" stroke-miterlimit="10"/>
<path d="M16.8588 120.872L1.49693 115.152C1.3508 115.097 1.22502 114.998 1.13627 114.87C1.04752 114.741 1 114.589 1 114.433C1 114.277 1.04752 114.124 1.13627 113.996C1.22502 113.867 1.3508 113.769 1.49693 113.713C7.21349 111.972 22.6619 107.382 26.7277 106.187C27.2251 106.043 28.119 106.842 28.2703 107.339C29.2598 110.62 30.4638 113.834 31.8747 116.958C32.0477 117.289 22.6691 115.303 21.1841 116.469C19.9442 117.455 17.2914 121.117 16.8588 120.872Z" fill="#659FEB" stroke="#659FEB" stroke-width="0.234964" stroke-miterlimit="10"/>
<path d="M15.6191 120.189L17.169 116.347C17.2488 116.15 17.289 115.94 17.2873 115.728C17.2856 115.516 17.2419 115.306 17.1589 115.111C17.0759 114.916 16.955 114.739 16.8034 114.59C16.6517 114.442 16.4722 114.325 16.2751 114.246V114.246C15.8773 114.089 15.4337 114.096 15.0408 114.265C14.648 114.433 14.3377 114.749 14.1774 115.145L12.5986 119.052" stroke="#F8F1EE" stroke-width="0.52867" stroke-miterlimit="10"/>
<path d="M28.9986 126.571L19.1153 118.606L16.8662 120.865L26.9297 128.146L28.9986 126.571Z" fill="#035BA0"/>
<path d="M130.318 103.273C133.439 104.468 135.689 107.079 136.806 112.433C137.923 117.786 143.294 109.094 143.142 114.476C141.045 115.641 129.619 130.305 125.676 131.974C108.18 139.226 94.8581 142.342 77.8381 138.91C61.1858 135.557 51.6847 116.606 46.8404 104.058C43.0125 94.179 43.0918 86.1279 41.3545 76.055C41.8591 74.8822 51.7063 74.616 52.247 75.0693C58.9583 95.8482 68.2577 107.446 80.9019 109.814C92.7098 112.051 101.086 110.216 109.737 107.454C109.708 107.432 119.375 99.0787 130.318 103.273Z" fill="#365185" stroke="#365185" stroke-width="0.220279" stroke-miterlimit="10"/>
<g style="mix-blend-mode:multiply" opacity="0.43">
<g style="mix-blend-mode:multiply" opacity="0.43">
<path d="M80.9019 109.792C92.7098 112.03 101.086 110.195 109.737 107.432C109.737 107.432 119.404 99.0859 130.347 103.273C133.468 104.468 135.717 107.08 136.835 112.433C137.952 117.786 142.984 109.662 142.854 115.044C140.756 116.203 129.648 130.334 125.704 131.974" fill="#365185"/>
</g>
</g>
<path d="M142.126 112.476C136.654 107.439 126.266 99.3953 125.358 99.9493C115.987 101.079 106.803 108.411 102.578 116.462C101.771 118.018 100.773 119.468 99.6082 120.779C94.2953 126.686 88.3193 131.823 78.3639 135.643C66.3541 140.255 51.6914 136.082 35.0392 121.973C33.2009 123.916 26.7419 126.945 26.9293 128.204C33.7272 135.773 37.9659 142.248 46.3858 148.63C57.1197 156.746 75.2209 167.869 91.1235 161.97C105.302 156.792 117.685 147.647 126.793 135.629L142.126 112.476Z" fill="#4465A6" stroke="#4465A6" stroke-width="0.220279" stroke-miterlimit="10"/>
<g style="mix-blend-mode:multiply" opacity="0.5">
<path d="M124.825 137.982C124.825 137.982 76.8937 184.698 27.6001 127.657C27.6001 127.657 39.0332 147.4 62.505 158.293C63.6656 157.494 88.0457 178.576 124.825 137.982Z" fill="#4465A6"/>
</g>
<path d="M163.673 67.7808C164.019 68.4355 166.362 85.394 163.06 91.1068C160.847 94.9345 148.376 106.346 142.796 113.339C142.796 113.339 131.485 106.331 125.149 100.259C126.915 93.6466 132.877 68.0326 145.06 61.291C147.626 61.8515 150.158 62.5578 152.643 63.4063C152.643 63.4063 159.268 74.616 163.673 67.7808Z" fill="#FFA47A" stroke="#FFA47A" stroke-width="1.08671" stroke-linecap="round" stroke-linejoin="round"/>
<path d="M125.668 96.4526L125.156 98.4672L138.925 110.526L125.668 96.4526Z" fill="#035BA0"/>
<path d="M163.673 67.7808C164.019 68.4355 166.362 85.394 163.06 91.1068C160.847 94.9345 148.376 106.346 142.796 113.339C142.796 113.339 139.329 111.03 123.888 93.7833C125.654 87.1783 132.877 68.0326 145.06 61.291C147.626 61.8515 150.158 62.5578 152.644 63.4063C152.644 63.4063 159.268 74.616 163.673 67.7808Z" fill="#F8F1EE" stroke="#F8F1EE" stroke-width="1.08671" stroke-miterlimit="10"/>
<g style="mix-blend-mode:multiply">
<path d="M142.796 113.339C142.796 113.339 139.329 111.03 123.888 93.7833C125.654 87.1783 132.877 68.0326 145.06 61.291C147.626 61.8515 150.158 62.5578 152.644 63.4063" fill="#F8F1EE"/>
<path d="M142.796 113.339C142.796 113.339 139.329 111.03 123.888 93.7833C125.654 87.1783 132.877 68.0326 145.06 61.291C147.626 61.8515 150.158 62.5578 152.644 63.4063" stroke="#F8F1EE" stroke-width="1.08671" stroke-linecap="round" stroke-linejoin="round"/>
</g>
<path d="M272.014 223.163L372.504 266.383C374.481 267.217 376.698 267.288 378.724 266.582C380.751 265.876 382.442 264.443 383.469 262.562L447.843 142.558C450.395 137.874 450.272 132.535 445.226 130.794C445.226 130.794 423.369 111.008 384.874 99.8558C373.722 96.6253 337.563 93.4739 337.563 93.4739L272.014 223.163Z" stroke="#F8F1EE" stroke-width="0.778319" stroke-linecap="round" stroke-linejoin="round"/>
<path d="M276.512 224.99L181.594 169.654C179.752 168.551 178.387 166.803 177.764 164.751C177.142 162.699 177.307 160.489 178.227 158.552L234.91 37.6125C237.202 32.7919 242.652 32.3962 247.669 34.2381C263.485 39.994 277.55 37.0585 309.247 61.5788C318.431 68.6802 342.292 96.0209 342.292 96.0209L276.512 224.99Z" stroke="#F8F1EE" stroke-width="0.778319" stroke-linecap="round" stroke-linejoin="round"/>
<path d="M442.069 132.557C442.069 132.557 421.041 113.526 384.024 102.813C373.751 99.8486 341.492 96.9419 338.702 96.6972C335.746 93.33 315.483 70.3422 307.308 64.0179C276.843 40.4545 263.334 43.3108 248.124 37.742C243.301 35.9792 238.067 36.3605 235.869 40.9941L181.378 157.235C180.492 159.098 180.332 161.222 180.929 163.196C181.526 165.169 182.837 166.851 184.607 167.913L275.661 221.004H275.777L372.122 262.958C374.023 263.764 376.157 263.834 378.107 263.154C380.057 262.474 381.683 261.093 382.668 259.281L444.585 143.86C447.036 139.37 446.927 134.226 442.069 132.557Z" fill="#2E4470" stroke="#2E4470" stroke-width="0.220279" stroke-miterlimit="10"/>
<path d="M270.168 218.32L280.527 223.717L344.793 97.424C340.845 97.1444 337.126 95.4682 334.305 92.6969L270.168 218.32Z" fill="#1D2B47" stroke="#1D2B47" stroke-width="0.220279" stroke-miterlimit="10"/>
<path d="M435.076 137.025C435.076 137.025 391.701 105.77 337.195 99.6112C300.149 59.5067 249.544 42.9583 249.544 42.9583L189.033 160.329C201.137 163.589 267.248 208.327 277.117 216.27L277.009 216.478L277.449 216.536C277.732 216.76 278.002 217 278.256 217.256L278.53 216.73C288.082 218.752 331.962 232.12 375.654 254.921L435.076 137.025Z" fill="#CFB2A3"/>
<path d="M306.911 75.8103C306.911 75.8103 312.721 58.7367 324.774 53.7434C324.933 53.6758 325.106 53.6466 325.278 53.6583C325.451 53.6699 325.618 53.722 325.766 53.8104C325.914 53.8988 326.04 54.0209 326.132 54.1669C326.224 54.3128 326.28 54.4783 326.296 54.65L326.649 58.4921L331.205 59.1037C331.41 59.1299 331.603 59.2137 331.762 59.3454C331.92 59.4771 332.039 59.6511 332.102 59.8473C332.166 60.0434 332.172 60.2535 332.12 60.4531C332.068 60.6527 331.961 60.8334 331.81 60.9743C327.326 65.169 315.403 77.4435 315.742 81.9979L306.911 75.8103Z" fill="#8AB5E1" stroke="#8AB5E1" stroke-width="0.440558" stroke-miterlimit="10"/>
<g opacity="0.76">
<path opacity="0.76" d="M309.737 75.8608C310.514 73.4419 311.546 71.1121 312.815 68.9105C314.331 66.6528 316.018 64.5144 317.861 62.5142C318.582 61.7084 317.393 60.5356 316.686 61.3414C314.76 63.448 312.996 65.6968 311.409 68.0687C309.924 70.4071 309.124 72.8533 308.158 75.4147C307.783 76.422 309.391 76.8537 309.766 75.8608H309.737Z" fill="#F2FCF9"/>
<path opacity="0.76" d="M320.291 59.6074L322.23 57.9742C322.386 57.8187 322.473 57.6077 322.473 57.3878C322.473 57.1679 322.386 56.9569 322.23 56.8014C322.074 56.6459 321.863 56.5585 321.642 56.5585C321.422 56.5585 321.211 56.6459 321.055 56.8014L319.109 58.4347C318.953 58.5902 318.865 58.8011 318.865 59.0211C318.865 59.241 318.953 59.4519 319.109 59.6074C319.264 59.763 319.476 59.8503 319.696 59.8503C319.916 59.8503 320.128 59.763 320.284 59.6074H320.291Z" fill="#F2FCF9"/>
</g>
<path d="M251.649 47.3256C259.953 45.2318 260.184 46.8723 268.474 49.002C276.061 50.7854 283.337 53.6958 290.057 57.6359C296.87 61.5859 305.131 67.2123 310.768 72.7021C319.887 81.5806 328.069 89.7541 336.604 99.2082L276.836 214.039C276.836 214.039 220.24 146.249 194.354 158.854L251.649 47.3256Z" fill="#F8F1EE"/>
<path d="M251.822 47.9516C254.921 47.2321 257.834 46.6781 260.977 47.4551C263.86 48.1746 266.664 49.1747 269.526 49.9446C276.391 51.7499 282.995 54.4267 289.178 57.9094C302.37 65.4353 312.894 75.465 323.455 86.2286C325.901 88.7181 328.319 91.2339 330.707 93.7761C331.911 95.064 333.043 96.4814 334.312 97.6901C333.908 97.3088 336.013 99.2802 335.991 98.9852C335.991 99.4457 335.206 100.503 335.004 100.892L329.496 111.476L288.226 190.793L276.274 213.744L277.29 213.615C270.432 205.497 263.161 197.735 255.505 190.361C243.452 178.626 230.001 166.287 214.293 159.674C207.935 156.998 200.56 155.278 194.029 158.329L194.908 159.214L214.199 121.649C224.512 101.575 234.826 81.4967 245.139 61.4133L252.211 47.6494C252.586 46.9299 251.49 46.2608 251.094 47.0018L231.803 84.5594C221.485 104.643 211.178 124.722 200.884 144.795L193.813 158.559C193.747 158.683 193.723 158.825 193.744 158.963C193.764 159.101 193.829 159.23 193.928 159.329C194.028 159.428 194.156 159.492 194.295 159.513C194.433 159.534 194.575 159.51 194.699 159.444C200.69 156.645 207.567 158.286 213.399 160.682C221.213 163.891 228.328 168.812 234.967 173.964C247.467 183.677 258.8 194.93 269.44 206.621C271.797 209.219 274.147 211.831 276.396 214.536C276.467 214.604 276.552 214.656 276.646 214.687C276.739 214.718 276.838 214.727 276.936 214.715C277.033 214.703 277.127 214.668 277.209 214.615C277.292 214.561 277.362 214.49 277.413 214.406L297.662 175.511L329.756 113.843L337.13 99.568C337.2 99.4439 337.228 99.3005 337.21 99.1592C337.192 99.0179 337.128 98.8862 337.029 98.7838C324.291 84.6817 311.078 70.0904 294.894 59.8664C287.886 55.3053 280.261 51.7657 272.251 49.3546C268.524 48.2753 264.747 47.0018 260.977 46.1169C257.754 45.3974 254.662 45.9442 251.497 46.7069C250.668 46.9011 251.014 48.1458 251.822 47.9516Z" fill="#F8F1EE"/>
<path d="M367.408 243.913C342.017 227.616 313.108 217.579 283.065 214.629C282.236 214.55 282.243 215.838 283.065 215.917C312.855 218.871 341.516 228.846 366.687 245.021C367.408 245.474 368.042 244.359 367.343 243.913H367.408Z" fill="#F8F1EE"/>
<path d="M277.896 216.392C310.336 222.961 342.674 234.264 371.452 250.755C371.598 250.823 371.765 250.834 371.919 250.785C372.074 250.737 372.204 250.632 372.285 250.493C372.367 250.353 372.393 250.188 372.358 250.031C372.324 249.873 372.232 249.734 372.1 249.64C343.265 233.092 310.826 221.731 278.235 215.147C277.427 214.982 277.074 216.227 277.896 216.392Z" fill="#F8F1EE"/>
<path d="M197.806 159.516C205.455 160.818 212.354 164.553 219.065 168.28C237.982 178.82 255.11 192.28 269.815 208.161C270.384 208.773 271.293 207.859 270.73 207.247C260.763 196.529 249.697 186.883 237.714 178.468C231.744 174.277 225.552 170.411 219.166 166.884C212.527 163.214 205.707 159.581 198.145 158.293C197.331 158.156 196.984 159.401 197.806 159.538V159.516Z" fill="#F8F1EE"/>
<path d="M194.497 160.157C225.322 173.712 253.804 193.872 278.263 216.86C278.869 217.435 279.785 216.522 279.179 215.953C254.669 192.886 226.065 172.64 195.146 159.041C194.425 158.71 193.705 159.826 194.497 160.157Z" fill="#F8F1EE"/>
<path d="M431.133 138.579L386.013 223.551C385.624 224.271 386.734 224.94 387.13 224.206L432.286 139.226C432.676 138.507 431.565 137.845 431.169 138.579H431.133Z" fill="#F8F1EE"/>
<path d="M429.324 136.967C426.13 129.053 424.66 129.815 418.056 124.376C412.137 119.31 405.488 115.16 398.333 112.066C391.124 108.9 381.703 105.547 373.939 104.23C361.381 102.072 350.02 100.683 337.354 99.3809L276.959 214.78C276.959 214.78 368.511 223.026 373.557 251.331L429.324 136.967Z" fill="#F8F1EE"/>
<path d="M429.944 136.795C428.898 134.255 427.781 131.686 425.849 129.693C423.686 127.492 420.896 125.829 418.51 123.937C411.83 118.473 404.408 113.979 396.466 110.591C377.723 102.727 357.423 100.834 337.354 98.755C337.241 98.7531 337.129 98.7823 337.031 98.8394C336.933 98.8965 336.853 98.9793 336.799 99.0787L316.427 137.996L283.922 200.11C281.414 204.907 278.908 209.703 276.404 214.5C276.349 214.598 276.321 214.709 276.322 214.821C276.323 214.933 276.352 215.044 276.408 215.141C276.464 215.239 276.544 215.32 276.64 215.378C276.737 215.436 276.846 215.468 276.959 215.471C287.138 216.392 297.288 217.939 307.329 219.788C324.544 222.947 342.746 226.846 358.173 235.437C364.502 238.963 371.444 243.977 372.908 251.539C372.944 251.659 373.015 251.766 373.11 251.847C373.206 251.928 373.323 251.981 373.448 251.997C373.572 252.014 373.699 251.994 373.813 251.941C373.927 251.888 374.023 251.804 374.09 251.698C380.338 238.876 386.585 226.052 392.833 213.226L422.951 151.494L429.857 137.334C430.217 136.615 429.136 135.895 428.74 136.679C422.492 149.506 416.244 162.329 409.997 175.151L379.879 236.883C377.581 241.603 375.279 246.323 372.973 251.043L374.155 251.201C371.401 236.962 352.125 230.415 340.273 226.523C323.621 221.069 306.198 217.889 288.846 215.565C284.903 215.039 280.916 214.543 276.973 214.183C277.161 214.507 277.348 214.831 277.528 215.155C287.933 195.282 298.333 175.412 308.728 155.545C315.687 142.253 322.641 128.966 329.59 115.685L335.999 103.396C336.424 102.59 336.9 100.949 337.599 100.345C337.736 100.23 337.736 99.8774 337.887 99.7838C337.649 99.9349 340.821 100.467 340.151 100.352C342.4 100.726 344.714 100.849 346.985 101.108C364.365 103.108 381.335 105.425 397.49 112.433C404.725 115.651 411.488 119.836 417.595 124.873C419.707 126.571 422.028 128.053 424.083 129.83C426.354 131.816 427.579 134.42 428.711 137.169C429.006 137.931 430.261 137.564 429.944 136.795Z" fill="#F8F1EE"/>
<path opacity="0.42" d="M336.035 99.4888C336.035 99.4888 300.185 158.372 279.885 166.531C251.879 177.777 215.893 160.142 215.893 160.142C215.893 160.142 270.81 195.491 276.836 214.068L336.035 99.4888Z" fill="#E0CFC8"/>
<path opacity="0.42" d="M341.456 98.4888C341.456 98.4888 316.045 162.524 321.776 183.626C329.705 212.701 365.49 230.703 365.49 230.703C365.49 230.703 304.157 208.327 285.631 214.737L341.456 98.4888Z" fill="#E0CFC8"/>
<g opacity="0.46">
<path opacity="0.46" d="M254.95 60.3269C256.157 60.2384 257.37 60.3183 258.555 60.5643C259.139 60.6507 259.694 60.8306 260.263 60.9601C260.833 61.0896 261.366 61.3126 261.921 61.4925C262.476 61.6724 262.995 61.917 263.529 62.1544C264.062 62.3919 264.581 62.6365 265.086 62.9531C266.156 63.5358 267.141 64.262 268.013 65.1115L267.955 65.2554C265.792 64.536 263.579 63.7085 261.395 62.9459C259.211 62.1832 257.07 61.3486 254.907 60.4924L254.95 60.3269Z" fill="#659FEB"/>
<path opacity="0.46" d="M275.056 69.3421L276.836 70.0616L278.603 70.7811L282.099 72.3496L285.516 74.0908C286.64 74.6951 287.751 75.3355 288.868 75.9614C289.985 76.5874 291.031 77.2709 292.148 77.9544L295.356 80.0554L298.484 82.2858L301.541 84.6097L304.504 87.0488C305.47 87.8906 306.443 88.7253 307.387 89.5814L310.177 92.2148C311.085 93.1166 311.982 94.0279 312.866 94.9489C313.731 95.8914 314.61 96.8195 315.461 97.7693L317.934 100.698L320.269 103.727C321.033 104.748 321.771 105.789 322.482 106.849L322.367 106.943C309.285 91.3706 293.16 78.6232 274.977 69.4788L275.056 69.3421Z" fill="#659FEB"/>
<path opacity="0.46" d="M246.79 74.616H248.354L249.912 74.6807L253.026 74.9469L256.126 75.4362C257.149 75.6376 258.166 75.8823 259.189 76.1053C260.213 76.3284 261.208 76.6521 262.217 76.9543L265.194 77.9616C266.167 78.3429 267.133 78.7531 268.078 79.1488L270.961 80.4726L273.729 81.9692C274.63 82.5088 275.539 83.034 276.425 83.588L279.021 85.3652C279.857 85.9936 280.686 86.6315 281.508 87.279C282.301 87.9626 283.101 88.6317 283.879 89.3296L286.121 91.4881L288.205 93.8192C288.875 94.6179 289.509 95.4381 290.129 96.2727L290.021 96.3734C278.543 84.3869 263.259 76.7392 246.769 74.7311L246.79 74.616Z" fill="#659FEB"/>
<path opacity="0.46" d="M297.792 104.835C299.429 105.514 300.996 106.35 302.471 107.331C303.191 107.778 303.912 108.31 304.633 108.77C305.354 109.231 306.01 109.828 306.695 110.36C307.38 110.893 308.029 111.476 308.67 112.051C309.312 112.627 309.953 113.217 310.552 113.857C311.811 115.1 312.95 116.459 313.954 117.915L313.853 118.037L305.736 111.562L297.706 104.95L297.792 104.835Z" fill="#659FEB"/>
<path opacity="0.46" d="M235.487 105.605C237.195 106.065 238.918 106.482 240.598 107.044L243.128 107.835C243.972 108.108 244.808 108.411 245.644 108.691C248.982 109.893 252.247 111.274 255.498 112.706C261.964 115.662 268.18 119.137 274.083 123.095C279.986 127.054 285.549 131.497 290.713 136.377C293.301 138.809 295.759 141.356 298.174 143.939C299.357 145.256 300.517 146.58 301.678 147.911C302.838 149.242 303.977 150.587 305.102 151.954L304.994 152.055C300.099 147.019 295.212 141.91 289.928 137.262C284.665 132.586 279.086 128.276 273.232 124.362C261.55 116.485 248.853 110.224 235.487 105.749V105.605Z" fill="#659FEB"/>
<path opacity="0.46" d="M230.779 118.462C232.867 118.712 234.92 119.195 236.9 119.901C237.895 120.21 238.846 120.62 239.819 120.995C240.792 121.369 241.715 121.858 242.652 122.304C243.589 122.75 244.483 123.283 245.377 123.815C246.271 124.347 247.151 124.901 247.994 125.52C249.724 126.702 251.32 128.07 252.752 129.6L252.673 129.729C245.718 125.359 238.372 121.643 230.729 118.627L230.779 118.462Z" fill="#659FEB"/>
<path opacity="0.46" d="M262.159 137.485L263.269 138.111L264.344 138.78L266.506 140.111C267.948 141.04 269.318 141.975 270.68 142.946C272.043 143.918 273.398 144.918 274.753 145.903L278.732 148.976C280.03 150.033 281.342 151.084 282.625 152.156C283.908 153.228 285.191 154.314 286.424 155.451C287.657 156.588 288.911 157.71 290.129 158.869C291.348 160.027 292.544 161.221 293.676 162.466L293.575 162.588L277.773 150.163L262.073 137.6L262.159 137.485Z" fill="#659FEB"/>
<path opacity="0.46" d="M239.992 155.861C241.456 155.718 242.933 155.9 244.317 156.394C244.999 156.62 245.666 156.89 246.314 157.199C246.949 157.523 247.561 157.919 248.174 158.257C248.787 158.595 249.335 159.07 249.883 159.516C250.427 159.967 250.947 160.448 251.44 160.955C252.451 161.97 253.3 163.135 253.956 164.409L253.855 164.524C251.818 162.704 249.65 161.038 247.367 159.538C246.229 158.78 245.045 158.095 243.82 157.487C242.593 156.887 241.317 156.391 240.007 156.005L239.992 155.861Z" fill="#659FEB"/>
<path opacity="0.46" d="M258.605 169.208C260.457 170.291 262.219 171.521 263.875 172.884C264.718 173.532 265.49 174.251 266.304 174.928C267.119 175.604 267.854 176.367 268.633 177.086C269.411 177.806 270.132 178.576 270.86 179.345C271.588 180.115 272.302 180.878 273.023 181.698C274.445 183.303 275.737 185.018 276.887 186.828L276.779 186.936L267.602 178.187L258.526 169.323L258.605 169.208Z" fill="#659FEB"/>
<path opacity="0.46" d="M344.714 115.152C346.073 114.832 347.473 114.715 348.866 114.807C349.587 114.807 350.229 114.929 350.906 114.994C351.584 115.059 352.24 115.246 352.91 115.375C353.581 115.505 354.222 115.728 354.871 115.944C355.52 116.16 356.154 116.39 356.774 116.663C358.056 117.206 359.251 117.933 360.321 118.822L360.278 118.966C357.726 118.16 355.16 117.404 352.557 116.807C349.955 116.21 347.331 115.677 344.692 115.246L344.714 115.152Z" fill="#659FEB"/>
<path opacity="0.46" d="M369.815 121.887C371.855 122.095 373.859 122.52 375.885 122.901L378.877 123.621C379.864 123.894 380.845 124.196 381.832 124.491C382.82 124.786 383.786 125.132 384.759 125.477L387.643 126.578C388.587 126.974 389.531 127.391 390.476 127.801L393.265 129.11L395.997 130.549C396.891 131.06 397.792 131.55 398.679 132.075L401.296 133.715C402.154 134.276 402.997 134.866 403.841 135.449C404.684 136.032 405.499 136.658 406.313 137.291L408.699 139.234C410.228 140.615 411.77 141.961 413.169 143.464L413.068 143.579C400.356 133.366 385.589 126.004 369.772 121.995L369.815 121.887Z" fill="#659FEB"/>
<path opacity="0.46" d="M337.852 130.736C340.603 130.42 343.383 130.449 346.127 130.823C347.504 130.974 348.859 131.255 350.222 131.542C350.899 131.701 351.563 131.888 352.233 132.053L354.23 132.636L356.191 133.355C356.832 133.614 357.481 133.852 358.123 134.125C359.384 134.694 360.646 135.262 361.85 135.938C364.295 137.239 366.569 138.839 368.619 140.701L368.532 140.831C359.212 135.194 348.711 131.786 337.852 130.873V130.736Z" fill="#659FEB"/>
<path opacity="0.46" d="M379.497 144.867C382.243 145.537 384.931 146.428 387.534 147.53C388.846 148.04 390.108 148.652 391.391 149.235C392.674 149.818 393.907 150.494 395.154 151.141C396.401 151.789 397.605 152.516 398.816 153.235C400.027 153.955 401.209 154.717 402.356 155.523C404.706 157.094 406.926 158.85 408.995 160.775L408.916 160.905C404.191 157.917 399.362 155.108 394.426 152.48C389.49 149.851 384.492 147.359 379.432 145.004L379.497 144.867Z" fill="#659FEB"/>
<path opacity="0.46" d="M328.278 148.976C329.672 148.937 331.066 149.065 332.43 149.357C333.101 149.465 333.749 149.666 334.405 149.825C335.061 149.983 335.696 150.228 336.337 150.429C336.979 150.63 337.599 150.897 338.226 151.149C338.853 151.4 339.466 151.688 340.057 152.019C341.306 152.638 342.476 153.406 343.539 154.307L343.489 154.451C340.922 153.624 338.385 152.717 335.833 151.854C333.281 150.99 330.743 150.062 328.228 149.105L328.278 148.976Z" fill="#659FEB"/>
<path opacity="0.46" d="M349.234 157.07C349.893 156.965 350.565 156.965 351.224 157.07C351.779 157.164 352.321 157.323 352.839 157.545C353.352 157.766 353.836 158.049 354.28 158.387C354.814 158.792 355.28 159.278 355.665 159.826L355.629 159.977C354.462 159.752 353.321 159.408 352.226 158.948C351.139 158.472 350.105 157.884 349.141 157.192L349.234 157.07Z" fill="#659FEB"/>
<path opacity="0.46" d="M314.062 174.626L316.434 174.913L318.806 175.252L323.52 176.072L328.192 177.137L332.827 178.353C334.362 178.791 335.898 179.252 337.419 179.741L341.96 181.302L346.43 183.051L350.842 184.943C356.675 187.582 362.301 190.653 367.674 194.131L371.646 196.815L375.525 199.614L379.251 202.614C380.47 203.643 381.674 204.693 382.856 205.758L382.762 205.88C362.593 190.329 339.072 179.679 314.062 174.777V174.626Z" fill="#659FEB"/>
<path opacity="0.46" d="M333.079 194.304C334.604 193.717 336.271 193.609 337.859 193.994C338.639 194.15 339.406 194.369 340.151 194.649C340.872 194.93 341.593 195.275 342.314 195.613C343.034 195.951 343.662 196.383 344.303 196.808C344.945 197.232 345.565 197.685 346.141 198.189C347.348 199.163 348.434 200.277 349.378 201.506L349.299 201.635C346.769 200.009 344.253 198.333 341.6 196.959C340.289 196.238 338.919 195.629 337.505 195.138C336.1 194.63 334.609 194.398 333.115 194.455L333.079 194.304Z" fill="#659FEB"/>
<path opacity="0.46" d="M356.45 204.945C358.372 205.432 360.249 206.085 362.058 206.895C362.967 207.255 363.832 207.708 364.718 208.118C365.605 208.528 366.449 209.017 367.314 209.471C368.179 209.924 369 210.442 369.837 210.953C370.673 211.464 371.495 211.982 372.288 212.557C373.933 213.658 375.479 214.9 376.909 216.27L376.836 216.399L366.571 210.809L356.378 205.053L356.45 204.945Z" fill="#659FEB"/>
</g>
<path d="M139.336 70.0113C136.95 102.705 188.42 120.951 188.42 120.951L199.954 124.024C210.169 130.341 215.367 131.175 215.367 131.175L208.663 127.139L219.022 130.377C219.303 130.456 218.625 129.715 218.373 129.578L210.443 125.34L221.069 127.995C221.12 128.013 221.175 128.011 221.224 127.988C221.273 127.965 221.31 127.923 221.328 127.873C221.347 127.822 221.344 127.767 221.321 127.718C221.298 127.669 221.257 127.632 221.206 127.614L211.243 122.577C211.243 122.577 221.473 124.923 220.615 124.016C219.757 123.11 209.694 119.153 209.694 119.153C209.694 119.153 212.995 114.282 212.7 113.85C212.217 113.13 208.692 115.217 205.08 115.785C202.802 116.145 185.681 108.871 185.681 108.871C172.576 103 155.606 88.308 157.567 67.2484C157.567 67.2484 156.759 60.2693 148.289 59.557C139.819 58.8447 139.336 70.0113 139.336 70.0113Z" fill="#FFA47A" stroke="#FFA47A" stroke-width="1.08671" stroke-linecap="round" stroke-linejoin="round"/>
<path d="M168.337 95.7763C161.726 88.4446 159.802 80.3791 157.589 67.2627C157.589 67.2627 156.781 60.2837 148.311 59.5714C139.841 58.8591 139.336 70.0112 139.336 70.0112C138.536 81.0051 139.033 87.5812 146.408 95.1935L168.337 95.7763Z" fill="#8AB5E1" stroke="#8AB5E1" stroke-width="0.440558" stroke-miterlimit="10"/>
<path d="M168.509 95.7536L152.26 99.6245C150.742 98.3296 149.36 96.8831 148.137 95.3075L168.509 95.7536Z" fill="#035BA0"/>
<path d="M258.014 205.564C251.426 223.947 238.731 235.545 220.493 234.272C205.852 233.25 192.285 226.595 179.143 220.062C174.645 217.824 170.031 215.5 166.65 211.787C161.669 206.319 160.076 198.671 158.663 191.419C157.25 184.166 155.859 176.957 154.46 169.726C153.386 164.215 152.247 158.516 149.003 153.897C145.759 149.278 139.826 146.119 134.463 147.824C129.1 149.53 126.375 157.451 130.599 161.157C139.509 155.811 138.911 142.759 135.89 132.837C130.822 116.214 122.216 100.879 110.66 87.8835C102.73 79.0049 92.5585 70.9106 80.6712 70.3782C65.2804 69.6587 52.3335 81.7102 43.4811 94.287C34.3043 107.331 27.2109 122.347 26.2233 138.234C25.7114 146.227 27.2902 155.199 33.6988 160.056C40.1074 164.912 51.8937 161.632 52.1677 153.624" stroke="#8AB5E1" stroke-width="1.55664" stroke-linecap="round" stroke-linejoin="round" stroke-dasharray="6.67 6.67"/>
<g style="mix-blend-mode:lighten">
<path d="M413.054 141.047C417.379 142.831 422.425 141.881 426.44 139.45C430.456 137.018 433.426 133.276 435.934 129.377C439.459 123.872 442.242 117.318 440.858 110.929C440.137 107.583 438.313 104.576 436.324 101.784C433.927 98.2265 430.92 95.1187 427.442 92.6033C423.917 90.2034 419.828 88.7568 415.575 88.4047C411.322 88.0526 407.05 88.8071 403.177 90.5945C399.303 92.3819 395.96 95.1411 393.474 98.6029C390.987 102.065 389.443 106.111 388.991 110.346" stroke="#F8F1EE" stroke-width="1.55664" stroke-linecap="round" stroke-linejoin="round" stroke-dasharray="5.38 5.38"/>
</g>
<path d="M471.776 185.756C471.665 186.348 471.379 186.893 470.957 187.323C470.535 187.753 469.994 188.048 469.404 188.171C468.814 188.294 468.2 188.24 467.64 188.015C467.081 187.79 466.601 187.405 466.261 186.907C465.921 186.41 465.736 185.823 465.731 185.221C465.725 184.619 465.898 184.029 466.229 183.525C466.559 183.022 467.031 182.627 467.587 182.391C468.142 182.156 468.754 182.09 469.347 182.202C469.741 182.275 470.116 182.426 470.451 182.644C470.787 182.863 471.076 183.145 471.301 183.475C471.527 183.806 471.685 184.177 471.767 184.568C471.848 184.96 471.851 185.363 471.776 185.756Z" fill="#659FEB"/>
<path d="M437.253 178.137C439.499 178.137 441.319 176.32 441.319 174.079C441.319 171.838 439.499 170.021 437.253 170.021C435.008 170.021 433.188 171.838 433.188 174.079C433.188 176.32 435.008 178.137 437.253 178.137Z" stroke="#659FEB" stroke-width="0.778319" stroke-miterlimit="10"/>
<path d="M301.483 43.8936C301.343 44.6332 300.987 45.3148 300.459 45.8523C299.931 46.3897 299.255 46.7589 298.517 46.913C297.779 47.0672 297.011 46.9994 296.312 46.7184C295.612 46.4373 295.012 45.9555 294.587 45.3339C294.161 44.7123 293.93 43.9789 293.923 43.2262C293.915 42.4736 294.131 41.7355 294.544 41.1055C294.956 40.4754 295.547 39.9815 296.24 39.6864C296.934 39.3912 297.7 39.3079 298.441 39.4471C298.933 39.5396 299.403 39.7279 299.822 40.0015C300.241 40.275 300.603 40.6283 300.885 41.0413C301.168 41.4542 301.366 41.9186 301.468 42.408C301.571 42.8974 301.576 43.4022 301.483 43.8936Z" fill="#8AB5E1"/>
<path d="M276.844 234.214C276.694 235.002 276.314 235.729 275.751 236.302C275.188 236.875 274.468 237.268 273.681 237.433C272.894 237.597 272.076 237.525 271.33 237.225C270.584 236.925 269.944 236.412 269.491 235.749C269.037 235.086 268.791 234.304 268.783 233.502C268.775 232.7 269.005 231.913 269.445 231.241C269.885 230.569 270.514 230.043 271.253 229.728C271.993 229.413 272.809 229.324 273.6 229.473C274.658 229.675 275.593 230.287 276.201 231.176C276.809 232.064 277.04 233.156 276.844 234.214V234.214Z" stroke="#8AB5E1" stroke-width="0.778319" stroke-miterlimit="10"/>
<path d="M173.974 140.701C173.798 141.639 173.347 142.503 172.678 143.184C172.01 143.866 171.154 144.334 170.219 144.53C169.284 144.725 168.311 144.64 167.425 144.284C166.538 143.928 165.778 143.318 165.239 142.53C164.7 141.743 164.407 140.813 164.398 139.86C164.388 138.906 164.662 137.971 165.185 137.173C165.708 136.375 166.457 135.749 167.336 135.376C168.215 135.003 169.186 134.898 170.125 135.075C171.382 135.312 172.494 136.038 173.216 137.093C173.938 138.148 174.21 139.446 173.974 140.701Z" fill="#659FEB" stroke="#659FEB" stroke-width="0.778319" stroke-linecap="round" stroke-linejoin="round" stroke-dasharray="6.67 6.67"/>
<path d="M84.9315 201.83C86.6873 201.83 88.1106 200.409 88.1106 198.657C88.1106 196.904 86.6873 195.484 84.9315 195.484C83.1758 195.484 81.7524 196.904 81.7524 198.657C81.7524 200.409 83.1758 201.83 84.9315 201.83Z" fill="#8AB5E1"/>
<path d="M13.5788 173.82C15.6451 173.82 17.3201 172.148 17.3201 170.086C17.3201 168.023 15.6451 166.351 13.5788 166.351C11.5125 166.351 9.8374 168.023 9.8374 170.086C9.8374 172.148 11.5125 173.82 13.5788 173.82Z" stroke="#659FEB" stroke-width="0.697551" stroke-miterlimit="10"/>
</svg>
