<svg width="20" height="20" viewBox="0 0 20 20" fill="none" xmlns="http://www.w3.org/2000/svg">
<path d="M7.05818 7.05805C7.30226 6.81397 7.69799 6.81397 7.94206 7.05805L10.0001 9.11612L12.0582 7.05806C12.3023 6.81398 12.698 6.81398 12.9421 7.05806C13.1861 7.30214 13.1861 7.69786 12.9421 7.94194L10.884 10L12.9421 12.0581C13.1861 12.3021 13.1861 12.6979 12.9421 12.9419C12.698 13.186 12.3023 13.186 12.0582 12.9419L10.0001 10.8839L7.94207 12.9419C7.69799 13.186 7.30226 13.186 7.05819 12.9419C6.81411 12.6979 6.81411 12.3021 7.05819 12.0581L9.11625 10L7.05818 7.94193C6.8141 7.69786 6.8141 7.30213 7.05818 7.05805Z" fill="#DC5F9F"/>
<path fill-rule="evenodd" clip-rule="evenodd" d="M6.0974 3.14063C8.67036 2.85307 11.3299 2.85307 13.9028 3.14063C15.4248 3.31074 16.6539 4.5096 16.8329 6.04041C17.1406 8.67117 17.1406 11.3288 16.8329 13.9596C16.6539 15.4904 15.4248 16.6893 13.9028 16.8594C11.3299 17.1469 8.67036 17.1469 6.0974 16.8594C4.57541 16.6893 3.34633 15.4904 3.16729 13.9596C2.8596 11.3288 2.8596 8.67117 3.16729 6.04041C3.34633 4.5096 4.57542 3.31074 6.0974 3.14063ZM13.764 4.3829C11.2833 4.10564 8.71693 4.10564 6.23624 4.3829C5.28255 4.48949 4.51917 5.24219 4.40883 6.18562C4.11242 8.7199 4.11242 11.2801 4.40883 13.8144C4.51917 14.7578 5.28255 15.5105 6.23624 15.6171C8.71693 15.8944 11.2833 15.8944 13.764 15.6171C14.7177 15.5105 15.481 14.7578 15.5914 13.8144C15.8878 11.2801 15.8878 8.71991 15.5914 6.18562C15.481 5.24219 14.7177 4.48949 13.764 4.3829Z" fill="#DC5F9F"/>
</svg>
