<svg width="300" height="300" viewBox="0 0 300 300" fill="none" xmlns="http://www.w3.org/2000/svg">
<path d="M240.845 41.0462C223.176 41.0462 208.853 55.3695 208.853 73.0382C208.853 90.7069 223.176 105.03 240.845 105.03C258.514 105.03 272.837 90.7069 272.837 73.0382C272.837 55.3695 258.514 41.0462 240.845 41.0462Z" fill="#035BA0" fill-opacity="0.7"/>
<path d="M35.0103 69.4165C19.6752 69.4165 7.24367 81.8481 7.24367 97.1831C7.24367 112.518 19.6752 124.95 35.0103 124.95C50.3453 124.95 62.7769 112.518 62.7769 97.1831C62.7769 81.8481 50.3453 69.4165 35.0103 69.4165Z" fill="#035BA0" fill-opacity="0.4"/>
<path d="M60.3622 209.457C47.6941 209.457 37.4246 219.726 37.4246 232.394C37.4246 245.062 47.6941 255.332 60.3622 255.332C73.0303 255.332 83.2998 245.062 83.2998 232.394C83.2998 219.726 73.0303 209.457 60.3622 209.457Z" fill="#035BA0" fill-opacity="0.2"/>
<path d="M266.049 119.138C247.299 119.138 232.099 133.968 232.099 152.261C232.099 170.555 247.299 185.384 266.049 185.384C284.8 185.384 300 170.555 300 152.261C300 133.968 284.8 119.138 266.049 119.138Z" fill="#035BA0" fill-opacity="0.8"/>
<path d="M168.518 -2.94011e-05C151.472 -3.08913e-05 137.654 13.4652 137.654 30.0754C137.654 46.6856 151.472 60.1509 168.518 60.1509C185.564 60.1509 199.383 46.6856 199.383 30.0754C199.383 13.4652 185.564 -2.79109e-05 168.518 -2.94011e-05Z" fill="#035BA0" fill-opacity="0.6"/>
<path d="M89.1976 13.177C73.0041 13.177 59.8767 25.9591 59.8767 41.7265C59.8767 57.494 73.0041 70.276 89.1976 70.276C105.391 70.276 118.519 57.494 118.519 41.7265C118.519 25.9591 105.391 13.177 89.1976 13.177Z" fill="#035BA0" fill-opacity="0.5"/>
<path d="M229.321 196.062C209.718 196.062 193.827 211.573 193.827 230.708C193.827 249.842 209.718 265.354 229.321 265.354C248.923 265.354 264.814 249.842 264.814 230.708C264.814 211.573 248.923 196.062 229.321 196.062Z" fill="#035BA0" fill-opacity="0.9"/>
<path d="M26.2346 143.582C11.7456 143.582 -1.17646e-05 155.109 -1.30078e-05 169.33C-1.4251e-05 183.55 11.7456 195.078 26.2346 195.078C40.7236 195.078 52.4692 183.55 52.4692 169.33C52.4692 155.109 40.7236 143.582 26.2346 143.582Z" fill="#035BA0" fill-opacity="0.3"/>
<path d="M141.247 225.151C120.578 225.151 103.823 241.906 103.823 262.575C103.823 283.244 120.578 300 141.247 300C161.916 300 178.672 283.244 178.672 262.575C178.672 241.906 161.916 225.151 141.247 225.151Z" fill="#035BA0"/>
</svg>
