<svg width="21" height="20" viewBox="0 0 21 20" fill="none" xmlns="http://www.w3.org/2000/svg">
<path d="M11 17.8125C10.4822 17.8125 10.0625 18.2322 10.0625 18.75C10.0625 19.2678 10.4822 19.6875 11 19.6875H18.5C19.7081 19.6875 20.6875 18.7081 20.6875 17.5V2.5C20.6875 1.29188 19.7081 0.3125 18.5 0.3125H11C10.4822 0.3125 10.0625 0.732235 10.0625 1.25C10.0625 1.76777 10.4822 2.1875 11 2.1875L18.5 2.1875C18.6726 2.1875 18.8125 2.32741 18.8125 2.5L18.8125 17.5C18.8125 17.6726 18.6726 17.8125 18.5 17.8125H11Z" fill="white" fill-opacity="0.7"/>
<path fill-rule="evenodd" clip-rule="evenodd" d="M14.1288 12.9565C14.9918 12.9565 15.6913 12.257 15.6913 11.394V8.59338C15.6913 7.73043 14.9918 7.03088 14.1288 7.03088L8.3631 7.03088C8.35495 6.9391 8.34641 6.84734 8.33749 6.7556L8.26996 6.06075C8.16692 5.00062 7.04117 4.36573 6.08064 4.82605C4.03786 5.80504 2.18856 7.14473 0.621694 8.78067L0.497695 8.91014C-0.0825647 9.51598 -0.0825647 10.4714 0.497694 11.0772L0.621694 11.2067C2.18856 12.8427 4.03786 14.1823 6.08064 15.1613C7.04117 15.6217 8.16692 14.9868 8.26996 13.9266L8.33749 13.2318C8.34641 13.1401 8.35495 13.0483 8.3631 12.9565H14.1288ZM7.49388 11.0815C7.16093 11.0815 6.86657 11.2556 6.7001 11.52C6.61903 11.6487 6.5683 11.7988 6.5582 11.9607C6.53553 12.3243 6.50655 12.6876 6.47129 13.0504L6.45169 13.2521C5.15663 12.5847 3.95395 11.7535 2.87297 10.7799C2.59253 10.5273 2.32027 10.2651 2.05672 9.99369C3.33615 8.67613 4.82064 7.57586 6.45169 6.73531L6.47129 6.93699C6.50655 7.29983 6.53553 7.66314 6.5582 8.02674C6.58902 8.52088 6.99878 8.90588 7.49389 8.90588H13.8163V11.0815H7.49388Z" fill="white" fill-opacity="0.7"/>
</svg>
