<svg width="20" height="20" viewBox="0 0 20 20" fill="none" xmlns="http://www.w3.org/2000/svg">
<path d="M10.0002 8.12501C8.96463 8.12501 8.12516 8.96448 8.12516 10C8.12516 11.0355 8.96463 11.875 10.0002 11.875C11.0357 11.875 11.8752 11.0355 11.8752 10C11.8752 8.96448 11.0357 8.12501 10.0002 8.12501Z" fill="#D0D0D0"/>
<path fill-rule="evenodd" clip-rule="evenodd" d="M10.0002 4.58334C7.81869 4.58334 5.85684 5.4595 4.44318 6.54447C3.73543 7.08767 3.15469 7.69095 2.74724 8.27808C2.34755 8.85402 2.0835 9.45962 2.0835 10C2.0835 10.5404 2.34755 11.146 2.74724 11.7219C3.15469 12.3091 3.73543 12.9124 4.44318 13.4555C5.85684 14.5405 7.81869 15.4167 10.0002 15.4167C12.1816 15.4167 14.1435 14.5405 15.5571 13.4555C16.2649 12.9124 16.8456 12.3091 17.2531 11.7219C17.6528 11.146 17.9168 10.5404 17.9168 10C17.9168 9.45962 17.6528 8.85402 17.2531 8.27808C16.8456 7.69095 16.2649 7.08767 15.5571 6.54447C14.1435 5.4595 12.1816 4.58334 10.0002 4.58334ZM6.87516 10C6.87516 8.27412 8.27427 6.87501 10.0002 6.87501C11.7261 6.87501 13.1252 8.27412 13.1252 10C13.1252 11.7259 11.7261 13.125 10.0002 13.125C8.27427 13.125 6.87516 11.7259 6.87516 10Z" fill="#D0D0D0"/>
</svg>
