<svg width="30" height="30" viewBox="0 0 30 30" fill="none" xmlns="http://www.w3.org/2000/svg">
<path d="M26.6789 28.1278C27.479 28.1278 28.1278 27.479 28.1278 26.6788V3.32394C28.1278 2.52358 27.4791 1.875 26.6789 1.875H3.32395C2.52359 1.875 1.875 2.52358 1.875 3.32394V26.6788C1.875 27.4789 2.52348 28.1278 3.32395 28.1278H26.6789Z" fill="#3C5A99"/>
<path d="M19.9891 28.1278V17.9613H23.4015L23.9125 13.9992H19.9891V11.4697C19.9891 10.3226 20.3076 9.54088 21.9526 9.54088L24.0506 9.53996V5.99625C23.6878 5.94796 22.4423 5.84009 20.9934 5.84009C17.9685 5.84009 15.8975 7.68651 15.8975 11.0773V13.9992H12.4763V17.9613H15.8975V28.1278H19.9891Z" fill="white"/>
</svg>
