<svg width="20" height="20" viewBox="0 0 20 20" fill="none" xmlns="http://www.w3.org/2000/svg">
<g clip-path="url(#clip0)">
<path d="M19.8394 8.14891C19.9283 8.14891 20.0004 8.22098 20.0004 8.30988V10C20.0004 10.6326 19.9416 11.2511 19.8289 11.8511C18.9571 16.5116 14.8513 20.0337 9.92985 19.9997C4.40762 19.9617 -0.011835 15.4998 0.000391519 9.97746C0.01254 4.46508 4.48512 0 10.0004 0C12.7024 0 15.1541 1.07195 16.954 2.8132C17.019 2.87605 17.0207 2.97965 16.9568 3.04355L14.5657 5.43461C14.5041 5.49617 14.4047 5.49777 14.3416 5.43773C13.2119 4.36238 11.6834 3.70219 10.0004 3.70219C6.52492 3.70219 3.72629 6.48094 3.7027 9.95629C3.67899 13.4545 6.50774 16.2978 10.0004 16.2978C12.8341 16.2978 15.2309 14.4257 16.0213 11.8511H10.1613C10.0724 11.8511 10.0004 11.779 10.0004 11.6901V8.30984C10.0004 8.22094 10.0724 8.14887 10.1613 8.14887H19.8394V8.14891Z" fill="#2196F3"/>
<path d="M19.839 8.14893H18.6318C18.7207 8.14893 18.7928 8.221 18.7928 8.3099V10C18.7928 10.6326 18.734 11.2511 18.6213 11.8511C17.7897 16.2973 14.0145 19.7072 9.39575 19.982C9.57247 19.9924 9.75036 19.9985 9.9295 19.9997C14.851 20.0337 18.9568 16.5116 19.8286 11.8511C19.9413 11.2511 20 10.6326 20 10V8.30986C20 8.221 19.9279 8.14893 19.839 8.14893Z" fill="#1E88E5"/>
<path d="M4.27971 7.36258L1.24268 5.1682C2.9465 2.08652 6.22979 0 10 0C12.7021 0 15.1537 1.07195 16.9537 2.8132C17.0187 2.87605 17.0204 2.97965 16.9564 3.04355L14.5654 5.43461C14.5039 5.49606 14.4045 5.49797 14.3415 5.43805C13.2118 4.3625 11.6832 3.70223 10 3.70223C7.46361 3.70223 5.27729 5.2016 4.27971 7.36258Z" fill="#F44336"/>
<path d="M3.40295 6.72903L4.27971 7.36251C5.19026 5.39008 7.09135 3.96953 9.34487 3.73652C9.36182 3.73469 9.37811 3.73246 9.39538 3.73082C9.19706 3.71199 8.99608 3.70215 8.7928 3.70215C6.50151 3.70215 4.50463 4.91008 3.40295 6.72903Z" fill="#E53935"/>
<path d="M15.7465 2.8132C15.8115 2.87605 15.8132 2.97965 15.7493 3.04359L13.8085 4.98434C13.9944 5.12574 14.1724 5.27699 14.3413 5.43777C14.4044 5.49781 14.5039 5.49621 14.5654 5.43465L16.9565 3.04359C17.0204 2.97965 17.0187 2.87609 16.9537 2.8132C15.1538 1.07195 12.7021 0 10.0001 0C9.7973 0 9.59613 0.00675781 9.39636 0.0186719C11.8589 0.165352 14.0816 1.20258 15.7465 2.8132Z" fill="#E53935"/>
<path d="M17.3357 16.796C15.5095 18.7666 12.8986 20 10 20C6.08497 20 2.69544 17.7501 1.05396 14.4724L4.15454 12.3477C5.08497 14.6628 7.35177 16.2978 10 16.2978C11.662 16.2978 13.1735 15.6539 14.2986 14.602L17.3357 16.796Z" fill="#4CAF50"/>
<path d="M4.15453 12.3477L3.24023 12.9742C4.30215 14.9525 6.39039 16.2977 8.79277 16.2977C8.99594 16.2977 9.19676 16.2878 9.395 16.269C7.01027 16.0416 5.0132 14.4843 4.15453 12.3477Z" fill="#43A047"/>
<path d="M10.0001 20C12.8987 20 15.5095 18.7666 17.3357 16.7959L16.5918 16.2585C14.8771 18.3925 12.3049 19.8082 9.39795 19.9817C9.59717 19.9936 9.79787 20 10.0001 20Z" fill="#43A047"/>
<path d="M3.70223 10C3.70223 10.8298 3.86277 11.6222 4.15453 12.3477L1.05391 14.4724C0.379492 13.1268 0 11.6077 0 10C0 8.24751 0.450703 6.6004 1.24266 5.16821L4.27969 7.36259C3.90906 8.16458 3.70223 9.05837 3.70223 10Z" fill="#FFC107"/>
<path d="M3.24038 12.9744L4.15468 12.3479C3.86292 11.6223 3.70238 10.8299 3.70238 10.0002C3.70238 9.05851 3.90921 8.16472 4.27984 7.36273L3.40308 6.72925C2.83374 7.66929 2.50331 8.77238 2.49527 9.95648C2.48784 11.0484 2.75843 12.0766 3.24038 12.9744Z" fill="#FFB300"/>
</g>
<defs>
<clipPath id="clip0">
<rect width="20" height="20" fill="white"/>
</clipPath>
</defs>
</svg>
