<svg width="20" height="20" viewBox="0 0 20 20" fill="none" xmlns="http://www.w3.org/2000/svg">
<path fill-rule="evenodd" clip-rule="evenodd" d="M6.04152 8.33342C6.04152 6.14729 7.81373 4.37508 9.99986 4.37508C12.186 4.37508 13.9582 6.14729 13.9582 8.33342C13.9582 10.5195 12.186 12.2917 9.99986 12.2917C7.81373 12.2917 6.04152 10.5195 6.04152 8.33342ZM9.99986 5.62508C8.50409 5.62508 7.29152 6.83764 7.29152 8.33342C7.29152 9.82919 8.50409 11.0417 9.99986 11.0417C11.4956 11.0417 12.7082 9.82919 12.7082 8.33342C12.7082 6.83764 11.4956 5.62508 9.99986 5.62508Z" fill="#D0D0D0"/>
<path fill-rule="evenodd" clip-rule="evenodd" d="M2.93683 7.38079C3.2321 3.79862 6.22556 1.04175 9.81989 1.04175H10.1798C13.7742 1.04175 16.7676 3.79862 17.0629 7.38079C17.2215 9.30508 16.6271 11.2158 15.4049 12.7106L11.4107 17.5954C10.6815 18.4871 9.31821 18.4871 8.58905 17.5954L4.59483 12.7106C3.37261 11.2158 2.77821 9.30508 2.93683 7.38079ZM9.81989 2.29175C6.8761 2.29175 4.42443 4.54965 4.1826 7.48348C4.05059 9.08501 4.54529 10.6753 5.56251 11.9193L9.55673 16.8041C9.78576 17.0842 10.214 17.0842 10.443 16.8041L14.4372 11.9193C15.4544 10.6753 15.9491 9.08501 15.8171 7.48348C15.5753 4.54965 13.1236 2.29175 10.1798 2.29175H9.81989Z" fill="#D0D0D0"/>
</svg>
