<svg width="15" height="15" viewBox="0 0 15 15" fill="none" xmlns="http://www.w3.org/2000/svg">
<path d="M10.8333 6.24982V4.46649C10.8512 3.56311 10.5105 2.68942 9.88581 2.03661C9.26111 1.38379 8.40325 1.00502 7.49996 0.983154C6.59667 1.00502 5.73881 1.38379 5.11411 2.03661C4.48941 2.68942 4.14873 3.56311 4.16663 4.46649V6.24982H2.91663V13.3332C2.91663 13.5542 3.00442 13.7661 3.1607 13.9224C3.31698 14.0787 3.52895 14.1665 3.74996 14.1665H11.25C11.471 14.1665 11.6829 14.0787 11.8392 13.9224C11.9955 13.7661 12.0833 13.5542 12.0833 13.3332V6.24982H10.8333ZM7.91663 10.5123V11.6665H7.08329V10.4748C6.88044 10.3704 6.71937 10.1998 6.62681 9.99133C6.53426 9.78281 6.51578 9.54892 6.57445 9.32846C6.63312 9.108 6.7654 8.91422 6.94936 8.77929C7.13331 8.64436 7.35787 8.57638 7.58577 8.58663C7.81368 8.59689 8.03122 8.68476 8.20231 8.83567C8.3734 8.98658 8.48775 9.19145 8.52638 9.41629C8.56501 9.64113 8.5256 9.87242 8.41469 10.0718C8.30378 10.2711 8.12804 10.4266 7.91663 10.5123ZM9.99996 6.24982H4.99996V4.46649C4.982 3.78409 5.23486 3.12232 5.7033 2.62577C6.17174 2.12922 6.81767 1.83827 7.49996 1.81649C8.18225 1.83827 8.82818 2.12922 9.29662 2.62577C9.76506 3.12232 10.0179 3.78409 9.99996 4.46649V6.24982Z" fill="#D0D0D0"/>
</svg>
