<svg width="100" height="47" viewBox="0 0 100 47" fill="none" xmlns="http://www.w3.org/2000/svg">
<path d="M23.3962 0C10.475 0 0 10.4749 0 23.3962C0 36.3176 10.475 46.7924 23.3962 46.7924C36.3176 46.7924 46.7924 36.3176 46.7924 23.3962C46.7924 10.4749 36.3176 0 23.3962 0V0Z" fill="white"/>
<path d="M14.5101 35.9543C14.5101 36.3502 14.1914 36.6711 13.7983 36.6711H13.3414C12.9482 36.6711 12.6295 36.3502 12.6295 35.9543V21.0992C12.6295 20.7035 12.9482 20.3826 13.3414 20.3826H13.7983C14.1914 20.3826 14.5101 20.7034 14.5101 21.0992V35.9543Z" fill="#035BA0"/>
<path d="M19.1323 35.9543C19.1323 36.3502 18.8136 36.6711 18.4205 36.6711H17.9637C17.5705 36.6711 17.2519 36.3502 17.2519 35.9543V21.0992C17.2519 20.7035 17.5705 20.3826 17.9637 20.3826H18.4205C18.8136 20.3826 19.1323 20.7034 19.1323 21.0992V35.9543Z" fill="#035BA0"/>
<path d="M23.7544 35.9543C23.7544 36.3502 23.4358 36.6711 23.0427 36.6711H22.5858C22.1926 36.6711 21.8738 36.3502 21.8738 35.9543V21.0992C21.8738 20.7035 22.1926 20.3826 22.5858 20.3826H23.0427C23.4358 20.3826 23.7544 20.7034 23.7544 21.0992V35.9543Z" fill="#035BA0"/>
<path d="M28.3767 35.9543C28.3767 36.3502 28.0578 36.6711 27.6646 36.6711H27.2078C26.8146 36.6711 26.496 36.3502 26.496 35.9543V21.0992C26.496 20.7035 26.8146 20.3826 27.2078 20.3826H27.6646C28.0578 20.3826 28.3767 20.7034 28.3767 21.0992V35.9543Z" fill="#035BA0"/>
<path d="M32.9987 35.9543C32.9987 36.3502 32.6801 36.6711 32.2871 36.6711H31.8301C31.4369 36.6711 31.1183 36.3502 31.1183 35.9543V21.0992C31.1183 20.7035 31.4369 20.3826 31.8301 20.3826H32.2871C32.6801 20.3826 32.9987 20.7034 32.9987 21.0992V35.9543Z" fill="#035BA0"/>
<path d="M10.6658 15.735H35.8771C36.305 15.735 36.6517 16.0818 36.6517 16.5096C36.6517 16.9374 36.305 17.2843 35.8771 17.2843H10.6658C9.30511 17.2843 8.20221 16.1812 8.20221 14.8205V13.5908C8.20221 12.2298 9.30522 11.1267 10.6661 11.1267H35.8771C36.3049 11.1267 36.6517 11.4736 36.6517 11.9013C36.6517 12.3291 36.3049 12.6759 35.8771 12.6759H10.6661C10.1609 12.6759 9.75131 13.0855 9.75131 13.5908V14.8205C9.75131 15.3257 10.1606 15.735 10.6658 15.735H10.6658Z" fill="#035BA0"/>
<path d="M57.9176 13.0818H61.2615C61.4743 13.0793 61.6628 13.0396 61.8297 12.9578C61.9966 12.8759 62.1312 12.7667 62.2281 12.6254C62.325 12.484 62.3735 12.3252 62.3761 12.1441C62.3735 11.9729 62.325 11.8167 62.2281 11.6728C62.1312 11.5289 61.9966 11.4124 61.8297 11.3255C61.6628 11.2387 61.4743 11.194 61.2615 11.1916H56.8675C56.6333 11.194 56.426 11.2462 56.2456 11.3453C56.0626 11.4445 55.9199 11.5711 55.8149 11.7273C55.7125 11.8836 55.6587 12.0473 55.656 12.2185V20.8508C55.6587 21.022 55.7099 21.1782 55.8095 21.3221C55.9091 21.466 56.0438 21.5825 56.2133 21.6694C56.383 21.7562 56.5742 21.8009 56.7869 21.8033C56.9942 21.8009 57.1826 21.7562 57.3523 21.6694C57.5218 21.5826 57.6592 21.466 57.7615 21.3221C57.8639 21.1782 57.915 21.022 57.9177 20.8508V13.0817L57.9176 13.0818ZM71.7457 20.8508V12.1441C71.743 11.968 71.6892 11.8067 71.5842 11.6604C71.4818 11.5165 71.3446 11.4 71.1749 11.3107C71.0026 11.2238 70.8169 11.1791 70.6149 11.1767H64.9124C64.6997 11.1791 64.5085 11.2238 64.3389 11.3107C64.1693 11.4 64.0346 11.5165 63.935 11.6604C63.8354 11.8067 63.7843 11.968 63.7815 12.1441V20.8508C63.7843 21.027 63.8354 21.1882 63.935 21.3321C64.0346 21.4784 64.1693 21.5951 64.3389 21.6818C64.5085 21.7711 64.6997 21.8158 64.9124 21.8182C65.1197 21.8158 65.3082 21.7711 65.4778 21.6818C65.6474 21.5951 65.7847 21.4784 65.887 21.3321C65.9893 21.1882 66.0405 21.027 66.0431 20.8508V13.0669H69.4841V20.8508C69.4867 21.027 69.5406 21.1882 69.6455 21.3321C69.7479 21.4784 69.8852 21.5951 70.0575 21.6818C70.2272 21.7711 70.4129 21.8158 70.6148 21.8182C70.8222 21.8158 71.0106 21.7711 71.1803 21.6818C71.3499 21.5951 71.4872 21.4784 71.5895 21.3321C71.6918 21.1882 71.743 21.027 71.7457 20.8508H71.7457ZM81.7453 20.8508V12.0102C81.7426 11.839 81.6888 11.6827 81.5838 11.5389C81.4815 11.3949 81.3442 11.2784 81.1746 11.1916C81.0022 11.1048 80.8165 11.0601 80.6145 11.0576C80.4126 11.0601 80.2268 11.1047 80.0571 11.1916C79.8848 11.2784 79.7475 11.3949 79.6452 11.5389C79.5402 11.6827 79.4863 11.839 79.4837 12.0102V15.478H76.0428V12.0102C76.0401 11.839 75.989 11.6827 75.8866 11.5389C75.7843 11.3949 75.647 11.2784 75.4774 11.1916C75.3077 11.1048 75.1193 11.0601 74.912 11.0576C74.6993 11.0601 74.5081 11.1047 74.3385 11.1916C74.1689 11.2784 74.0342 11.3949 73.9346 11.5389C73.835 11.6827 73.7839 11.839 73.7812 12.0102V20.8508C73.7839 21.027 73.835 21.1882 73.9346 21.3321C74.0342 21.4784 74.1689 21.5951 74.3385 21.6818C74.5081 21.7711 74.6993 21.8158 74.912 21.8182C75.1193 21.8158 75.3077 21.7711 75.4774 21.6818C75.647 21.5951 75.7843 21.4784 75.8866 21.3321C75.989 21.1882 76.0401 21.027 76.0428 20.8508V17.383H79.4837V20.8508C79.4863 21.027 79.5402 21.1882 79.6452 21.3321C79.7476 21.4784 79.8848 21.5951 80.0571 21.6818C80.2268 21.7711 80.4126 21.8158 80.6145 21.8182C80.8218 21.8158 81.0103 21.7711 81.1799 21.6818C81.3495 21.5951 81.4868 21.4784 81.5892 21.3321C81.6915 21.1882 81.7426 21.027 81.7453 20.8508ZM85.8648 20.8657C85.8675 21.0369 85.9186 21.1931 86.0183 21.337C86.1179 21.4809 86.2525 21.5975 86.4221 21.6843C86.5917 21.7711 86.7829 21.8158 86.9956 21.8182C87.2029 21.8158 87.3913 21.7711 87.561 21.6843C87.7306 21.5975 87.8679 21.4809 87.9702 21.337C88.0725 21.1931 88.1237 21.0369 88.1263 20.8657V13.0818H89.8387C90.046 13.0793 90.2372 13.0347 90.4095 12.9503C90.5818 12.866 90.7191 12.7519 90.8242 12.613C90.9292 12.4716 90.983 12.3153 90.9857 12.1441C90.983 11.9631 90.9264 11.8018 90.8187 11.6579C90.7083 11.5165 90.5683 11.4024 90.3933 11.3181C90.221 11.2362 90.0352 11.1941 89.8386 11.1916H84.1523C83.9395 11.1966 83.7484 11.2462 83.5788 11.3454C83.4092 11.4446 83.2745 11.5662 83.1749 11.7125C83.0753 11.8564 83.0242 12.0002 83.0214 12.1441C83.0242 12.3153 83.0726 12.4715 83.1722 12.613C83.2691 12.7519 83.4038 12.866 83.5734 12.9503C83.743 13.0346 83.9342 13.0793 84.1523 13.0818H85.8646V20.8657H85.8648ZM98.1744 13.0818C98.3871 13.0793 98.5756 13.0396 98.7425 12.9578C98.9122 12.8759 99.044 12.7667 99.141 12.6254C99.2379 12.484 99.2864 12.3252 99.289 12.1441C99.2864 11.9729 99.2379 11.8167 99.141 11.6728C99.044 11.5289 98.9122 11.4124 98.7425 11.3255C98.5756 11.2387 98.3871 11.194 98.1744 11.1916H93.4574C93.2231 11.194 93.0158 11.2462 92.8354 11.3453C92.6524 11.4445 92.5097 11.5711 92.4047 11.7273C92.3023 11.8836 92.2486 12.0473 92.2458 12.2185V20.6127C92.2486 20.8087 92.3077 20.9873 92.4208 21.1485C92.5366 21.3097 92.6874 21.4388 92.8786 21.5355C93.067 21.6322 93.277 21.6818 93.5058 21.6843H95.8805C96.637 21.6793 97.2806 21.5876 97.8056 21.4064C98.3306 21.2229 98.756 20.9749 99.0791 20.6598C99.4022 20.3473 99.6364 19.9876 99.7845 19.5882C99.9299 19.1863 100.003 18.7647 100 18.3207C99.9945 17.6087 99.8249 17.0084 99.4884 16.5173C99.1518 16.0261 98.6753 15.6541 98.0614 15.4011C97.4475 15.1456 96.7206 15.0191 95.8805 15.0165H94.5074V13.0817H98.1745L98.1744 13.0818ZM95.8805 16.9068C96.489 16.9068 96.9494 17.0234 97.2644 17.259C97.5793 17.4947 97.7382 17.8519 97.7382 18.3356C97.7409 18.5167 97.714 18.6928 97.6629 18.8639C97.609 19.0376 97.5148 19.1938 97.3801 19.3327C97.2428 19.4716 97.0544 19.5833 96.812 19.6676C96.5697 19.7495 96.2574 19.7916 95.8805 19.7941H94.5073V16.9068H95.8805V16.9068Z" fill="white"/>
<path d="M55.2703 32.8338C55.2703 33.4093 55.3372 33.9277 55.4712 34.394C55.6052 34.8579 55.811 35.2572 56.0864 35.5896C56.3592 35.9245 56.709 36.1801 57.1282 36.3586C57.5499 36.5372 58.046 36.6265 58.619 36.629C58.9613 36.6265 59.2888 36.5942 59.6013 36.5273C59.9163 36.4603 60.1966 36.3685 60.4447 36.2519C60.6927 36.1329 60.8887 35.9989 61.0326 35.8452C61.1765 35.6914 61.2509 35.5252 61.2533 35.349C61.2509 35.2027 61.2013 35.0812 61.102 34.982C61.0053 34.8827 60.8763 34.8331 60.7175 34.8282C60.6506 34.8282 60.5911 34.8406 60.5414 34.8604C60.4918 34.8827 60.4422 34.9125 60.3877 34.9497C60.3331 34.9869 60.2637 35.0316 60.1818 35.0812C59.961 35.2375 59.7303 35.354 59.4872 35.4285C59.2466 35.5054 58.9812 35.5425 58.6934 35.5425C58.1353 35.5401 57.6938 35.4285 57.3664 35.2102C57.0389 34.9919 56.8057 34.6818 56.6668 34.2775C56.5255 33.8732 56.4585 33.3919 56.461 32.8338V29.6488C56.4585 29.0907 56.5255 28.6095 56.6668 28.2051C56.8057 27.8008 57.0389 27.4908 57.3664 27.2725C57.6938 27.0517 58.1353 26.9426 58.6934 26.9401C58.9812 26.9401 59.2466 26.9773 59.4872 27.0542C59.7303 27.1286 59.961 27.2451 60.1818 27.4015C60.2587 27.4511 60.3257 27.4957 60.3803 27.5329C60.4348 27.5702 60.4869 27.5999 60.539 27.6222C60.5911 27.6421 60.6506 27.6545 60.7176 27.6545C60.8764 27.6495 61.0053 27.5975 61.1021 27.5007C61.2013 27.4015 61.2509 27.2775 61.2534 27.1336C61.2509 26.9575 61.1765 26.7913 61.0326 26.6375C60.8888 26.4837 60.6928 26.3498 60.4448 26.2307C60.1968 26.1141 59.9164 26.0223 59.6014 25.9554C59.2888 25.8884 58.9614 25.8536 58.6191 25.8536C58.046 25.8561 57.55 25.9454 57.1283 26.124C56.709 26.3026 56.3593 26.5581 56.0865 26.8905C55.8111 27.2254 55.6052 27.6223 55.4713 28.0886C55.3373 28.5525 55.2703 29.0734 55.2703 29.6489V32.8339L55.2703 32.8338ZM65.8523 36.6439C66.4228 36.6415 66.9214 36.5422 67.348 36.3463C67.7747 36.1503 68.1319 35.8799 68.4172 35.5302C68.7024 35.1829 68.9182 34.781 69.0621 34.3197C69.2035 33.8608 69.2754 33.3646 69.2754 32.8338V29.6488C69.2779 29.1278 69.2134 28.6392 69.0869 28.1827C68.9579 27.7263 68.757 27.3244 68.4841 26.9747C68.2113 26.6275 67.859 26.3521 67.4224 26.1561C66.9884 25.9577 66.465 25.856 65.8522 25.8535C65.2395 25.856 64.7161 25.9577 64.282 26.1561C63.848 26.3521 63.4932 26.6275 63.2204 26.9747C62.9475 27.3244 62.7466 27.7263 62.6176 28.1827C62.4911 28.6392 62.429 29.1278 62.429 29.6488V32.8338C62.429 33.3646 62.501 33.8607 62.6448 34.3197C62.7862 34.781 63.0021 35.1829 63.2873 35.5302C63.5726 35.8799 63.9298 36.1503 64.3565 36.3463C64.7856 36.5423 65.2842 36.6415 65.8522 36.6439H65.8523ZM65.8523 27.0144C66.3955 27.0169 66.8321 27.1285 67.1595 27.3468C67.4869 27.5651 67.7251 27.8702 67.869 28.2646C68.0153 28.659 68.0873 29.1204 68.0848 29.6488V32.8338C68.0848 33.3597 68.0054 33.8186 67.8467 34.2155C67.6879 34.6124 67.4423 34.9199 67.1124 35.1432C66.7824 35.3665 66.3633 35.4805 65.8522 35.483C65.3412 35.4805 64.922 35.3664 64.5921 35.1432C64.2622 34.9199 64.0166 34.6123 63.8578 34.2155C63.6991 33.8186 63.6197 33.3597 63.6197 32.8338V29.6488C63.6172 29.1204 63.6891 28.659 63.8355 28.2646C63.9818 27.8702 64.2175 27.5651 64.5449 27.3468C64.8749 27.1286 65.309 27.0169 65.8522 27.0144H65.8523ZM78.4138 32.6254C79.0985 32.623 79.6888 32.4964 80.1874 32.241C80.6884 31.9879 81.0754 31.6158 81.3482 31.1271C81.6211 30.6385 81.76 30.0431 81.7625 29.3362C81.765 28.8972 81.7055 28.4779 81.5864 28.0811C81.4673 27.6817 81.2764 27.327 81.0159 27.0169C80.753 26.7044 80.4082 26.4588 79.979 26.2777C79.5524 26.0992 79.029 26.0049 78.4138 26.0024H76.2259C76.0945 26.0049 75.9754 26.0372 75.8687 26.1016C75.7621 26.1661 75.6752 26.2529 75.6107 26.3596C75.5463 26.4663 75.514 26.5853 75.5116 26.7168V36.0189C75.514 36.133 75.5413 36.2396 75.5958 36.3339C75.6505 36.4257 75.7249 36.5025 75.8141 36.5572C75.9034 36.6142 76.0002 36.6415 76.1069 36.6439C76.2185 36.6415 76.3177 36.6117 76.407 36.5546C76.4963 36.4976 76.5682 36.4207 76.6203 36.3264C76.6724 36.2321 76.6997 36.1304 76.7022 36.0188V32.6254H78.4138H78.4138ZM76.7022 27.1633H78.4138C78.8504 27.1657 79.21 27.2278 79.4928 27.3493C79.7731 27.4709 79.9939 27.6346 80.1526 27.8405C80.3089 28.0464 80.4206 28.2771 80.4826 28.5326C80.5446 28.788 80.5744 29.051 80.5719 29.3214C80.5719 30.0482 80.3883 30.5889 80.0237 30.9387C79.659 31.2909 79.1232 31.4671 78.4138 31.4646H76.7022V27.1633ZM84.5011 34.1286H88.2665L88.9065 36.1974C88.9338 36.2867 88.9785 36.3661 89.0405 36.4331C89.1025 36.4976 89.1744 36.5497 89.2538 36.5869C89.3332 36.6241 89.4101 36.6439 89.4869 36.6439C89.6705 36.6415 89.8194 36.5869 89.9334 36.4802C90.0501 36.3736 90.1096 36.2297 90.1121 36.0486C90.1121 36.0164 90.1096 35.9767 90.1021 35.932C90.0972 35.8849 90.0897 35.8502 90.0823 35.8254L87.1801 26.6424C87.133 26.4861 87.0734 26.3497 87.0089 26.2331C86.9419 26.1141 86.8601 26.0223 86.7608 25.9552C86.6616 25.8883 86.5376 25.8535 86.3912 25.8535C86.2473 25.856 86.1283 25.8908 86.029 25.9577C85.9298 26.0272 85.848 26.1214 85.781 26.2381C85.7165 26.3571 85.662 26.4911 85.6173 26.6424L82.7151 35.8254C82.7076 35.8502 82.7002 35.8848 82.6953 35.932C82.6878 35.9766 82.6853 36.0163 82.6853 36.0486C82.6878 36.1677 82.7151 36.2719 82.7721 36.3612C82.8267 36.4505 82.9011 36.5199 82.9954 36.5695C83.0896 36.6192 83.1938 36.6439 83.3104 36.6439C83.3823 36.6439 83.4543 36.6241 83.5287 36.5869C83.6056 36.5497 83.675 36.4976 83.737 36.4331C83.7991 36.3661 83.8437 36.2867 83.8759 36.1974L84.5011 34.1286ZM86.3913 27.9223L87.9242 32.9677H84.8583L86.3913 27.9223ZM98.0151 36.0337V26.4489C98.0126 26.3423 97.9854 26.2455 97.9308 26.1562C97.8762 26.0669 97.8018 25.9925 97.7125 25.9379C97.6232 25.8834 97.5265 25.8561 97.4198 25.8536C97.3132 25.8561 97.2164 25.8834 97.1271 25.9379C97.0378 25.9925 96.9659 26.0669 96.9088 26.1562C96.8543 26.2455 96.8269 26.3423 96.8245 26.4489V30.6608H92.7613V26.4489C92.7589 26.3423 92.7316 26.2455 92.6795 26.1562C92.6274 26.0669 92.5555 25.9925 92.4662 25.9379C92.3769 25.8834 92.2777 25.8561 92.1661 25.8536C92.0569 25.8561 91.9552 25.8834 91.8659 25.9379C91.7766 25.9925 91.7047 26.0669 91.6526 26.1562C91.6005 26.2455 91.5732 26.3423 91.5708 26.4489V36.0337C91.5732 36.1454 91.6005 36.2446 91.6526 36.3363C91.7047 36.4281 91.7766 36.5025 91.8659 36.5571C91.9552 36.6141 92.0569 36.6414 92.1661 36.6439C92.2777 36.6414 92.3769 36.6141 92.4662 36.5571C92.5555 36.5025 92.6274 36.4281 92.6795 36.3363C92.7316 36.2445 92.7589 36.1454 92.7613 36.0337V31.8218H96.8245V36.0337C96.8269 36.1454 96.8543 36.2446 96.9088 36.3363C96.9659 36.4281 97.0378 36.5025 97.1271 36.5571C97.2164 36.6141 97.3132 36.6414 97.4198 36.6439C97.5314 36.6414 97.6307 36.6141 97.7199 36.5571C97.8092 36.5025 97.8812 36.4281 97.9333 36.3363C97.9879 36.2445 98.0151 36.1454 98.0151 36.0337Z" fill="white"/>
</svg>
