<svg width="21" height="21" viewBox="0 0 21 21" fill="none" xmlns="http://www.w3.org/2000/svg">
<circle cx="10.5" cy="10.5" r="10.5" fill="#DC5F9F"/>
<path d="M9.39521 12.7386C9.39521 13.296 9.86228 13.7455 10.4731 13.7455C11.0299 13.7455 11.5329 13.278 11.5509 12.7386L11.7305 5.16874C11.7305 4.5574 11.1557 4 10.4731 4C9.77246 4 9.21557 4.5574 9.21557 5.16874L9.39521 12.7386ZM12 15.5975C12 14.8423 11.3174 14.213 10.509 14.213C9.66467 14.213 9 14.8423 9 15.5975C9 16.3527 9.66467 17 10.509 17C11.3174 17 12 16.3527 12 15.5975Z" fill="white"/>
</svg>
