<svg width="30" height="30" viewBox="0 0 30 30" fill="none" xmlns="http://www.w3.org/2000/svg">
<path d="M15 0C6.715 0 0 6.715 0 15C0 23.285 6.715 30 15 30C23.285 30 30 23.285 30 15C30 6.715 23.285 0 15 0ZM9.21125 5.4725C9.8675 5.4725 10.395 6.01125 10.395 6.65625C10.395 7.30125 9.8675 7.84 9.21125 7.84C8.8976 7.83901 8.59709 7.71398 8.37531 7.4922C8.15352 7.27041 8.02849 6.9699 8.0275 6.65625C8.0275 6 8.555 5.4725 9.21125 5.4725ZM8.30875 9.27H10.1137V21.8213H8.30875V9.27ZM12.7612 9.27H17.6362C22.2763 9.27 24.3162 12.5863 24.3162 15.5513C24.3162 18.7738 21.7962 21.8325 17.66 21.8325H12.7612V9.27ZM14.5662 10.8988V20.2038H17.4375C21.5275 20.2038 22.465 17.0987 22.465 15.5513C22.465 13.0312 20.86 10.8988 17.3438 10.8988H14.5662Z" fill="#035BA0"/>
</svg>
