<svg width="70" height="10" viewBox="0 0 70 10" fill="none" xmlns="http://www.w3.org/2000/svg">
<path d="M5 0L6.32252 3.17971L9.75528 3.45492L7.13988 5.69529L7.93893 9.04508L5 7.25L2.06107 9.04508L2.86012 5.69529L0.244718 3.45492L3.67748 3.17971L5 0Z" fill="#035BA0"/>
<path d="M20 0L21.3225 3.17971L24.7553 3.45492L22.1399 5.69529L22.9389 9.04508L20 7.25L17.0611 9.04508L17.8601 5.69529L15.2447 3.45492L18.6775 3.17971L20 0Z" fill="#035BA0"/>
<path d="M35 0L36.3225 3.17971L39.7553 3.45492L37.1399 5.69529L37.9389 9.04508L35 7.25L32.0611 9.04508L32.8601 5.69529L30.2447 3.45492L33.6775 3.17971L35 0Z" fill="#035BA0"/>
<path d="M50 0L51.3225 3.17971L54.7553 3.45492L52.1399 5.69529L52.9389 9.04508L50 7.25L47.0611 9.04508L47.8601 5.69529L45.2447 3.45492L48.6775 3.17971L50 0Z" fill="#035BA0"/>
<path d="M65 0L66.3225 3.17971L69.7553 3.45492L67.1399 5.69529L67.9389 9.04508L65 7.25L62.0611 9.04508L62.8601 5.69529L60.2447 3.45492L63.6775 3.17971L65 0Z" fill="#D0D0D0"/>
</svg>
