<svg width="23" height="23" viewBox="0 0 23 23" fill="none" xmlns="http://www.w3.org/2000/svg">
<path fill-rule="evenodd" clip-rule="evenodd" d="M13.9812 15.3071C10.6684 17.9604 5.81912 17.7515 2.74814 14.6806C-0.546907 11.3855 -0.546907 6.04319 2.74814 2.74814C6.04319 -0.546907 11.3855 -0.546906 14.6806 2.74814C17.7515 5.81912 17.9604 10.6684 15.3071 13.9812L21.7516 20.4258C22.1177 20.7919 22.1177 21.3855 21.7516 21.7516C21.3855 22.1177 20.7919 22.1177 20.4258 21.7516L13.9812 15.3071ZM4.07397 13.3547C1.51115 10.7919 1.51115 6.63678 4.07397 4.07397C6.63678 1.51115 10.7919 1.51115 13.3547 4.07397C15.9157 6.6349 15.9176 10.7858 13.3604 13.3491C13.3585 13.351 13.3566 13.3528 13.3547 13.3547C13.3528 13.3566 13.351 13.3585 13.3491 13.3604C10.7858 15.9176 6.6349 15.9157 4.07397 13.3547Z" fill="#D0D0D0"/>
</svg>
