<svg width="30" height="30" viewBox="0 0 30 30" fill="none" xmlns="http://www.w3.org/2000/svg">
<rect x="1.875" y="1.875" width="26.25" height="26.25" rx="6" fill="#2789F6"/>
<path d="M21.4906 17.1882C21.2886 16.9142 21.2434 16.6368 21.3538 16.3557C21.6292 15.6059 25.64 10.8432 23.9692 10.8432C22.821 10.8585 21.4402 10.8432 20.3395 10.8432C20.1351 10.893 20.0029 11.0002 19.9202 11.2184C19.2765 12.7026 18.4888 14.5139 17.3344 15.6779C17.1826 15.8004 17.0879 15.7952 16.9149 15.7499C16.1051 14.8974 16.9685 11.9766 16.4761 10.8225C16.379 10.5966 16.1666 10.4946 15.9493 10.4372C14.8499 10.1751 12.3391 10.3311 11.9294 10.8585C11.8123 11.0093 11.796 11.0915 11.8805 11.1051C12.2708 11.1667 12.5472 11.314 12.7098 11.5469C13.0166 12.2225 13.2427 15.8216 12.3391 15.8216C11.4354 15.8216 9.97831 12.2895 9.57801 11.3103C9.47148 11.0155 9.2003 10.8465 8.91456 10.7966L6.24121 10.817C5.7713 10.817 5.50868 11.0488 5.67523 11.5158C7.06763 14.9721 10.1147 21.6716 14.788 21.5039C15.2562 21.5039 16.0616 21.6836 16.4272 21.2778C16.9297 20.6111 16.3169 19.4239 17.1785 18.9712C17.3958 18.8555 17.621 18.9524 17.8077 19.0946C18.7661 19.8243 19.2749 21.1052 20.4568 21.494C20.6646 21.5625 20.8467 21.5796 21.003 21.5454L23.5007 21.5044C23.9644 21.5044 24.4212 21.298 24.3252 20.7437C23.9611 19.5548 22.5101 18.3328 21.4906 17.1882Z" fill="white"/>
</svg>
