<svg width="15" height="15" viewBox="0 0 15 15" fill="none" xmlns="http://www.w3.org/2000/svg">
<path fill-rule="evenodd" clip-rule="evenodd" d="M4.79375 1.24988H10.2125C12.3312 1.24988 13.75 2.73738 13.75 4.94988V10.0561C13.75 12.2624 12.3312 13.7499 10.2125 13.7499H4.79375C2.675 13.7499 1.25 12.2624 1.25 10.0561V4.94988C1.25 2.73738 2.675 1.24988 4.79375 1.24988ZM4.69998 8.24989C4.28748 8.24989 3.94998 7.91239 3.94998 7.49989C3.94998 7.08739 4.28748 6.75051 4.69998 6.75051C5.11248 6.75051 5.44998 7.08739 5.44998 7.49989C5.44998 7.91239 5.11248 8.24989 4.69998 8.24989ZM6.74996 7.49989C6.74996 7.91239 7.08746 8.24989 7.49996 8.24989C7.91246 8.24989 8.24996 7.91239 8.24996 7.49989C8.24996 7.08739 7.91246 6.75051 7.49996 6.75051C7.08746 6.75051 6.74996 7.08739 6.74996 7.49989ZM9.54994 7.49989C9.54994 7.91239 9.88744 8.24989 10.2999 8.24989C10.7124 8.24989 11.0437 7.91239 11.0437 7.49989C11.0437 7.08739 10.7124 6.75051 10.2999 6.75051C9.88744 6.75051 9.54994 7.08739 9.54994 7.49989Z" fill="white"/>
</svg>
