<svg width="15" height="15" viewBox="0 0 15 15" fill="none" xmlns="http://www.w3.org/2000/svg">
<path fill-rule="evenodd" clip-rule="evenodd" d="M10.5874 1.875C11.4255 1.875 12.2317 2.20625 12.8249 2.80062C13.4186 3.39375 13.7505 4.19375 13.7505 5.03125V9.96875C13.7505 11.7125 12.3317 13.125 10.5874 13.125H4.41299C2.66861 13.125 1.25049 11.7125 1.25049 9.96875V5.03125C1.25049 3.2875 2.66236 1.875 4.41299 1.875H10.5874ZM11.5818 5.96251L11.6318 5.91251C11.7811 5.73126 11.7811 5.46876 11.6249 5.28751C11.538 5.19438 11.4186 5.13751 11.2943 5.12501C11.163 5.11813 11.038 5.16251 10.9436 5.25001L8.1255 7.50001C7.763 7.80063 7.24363 7.80063 6.8755 7.50001L4.063 5.25001C3.86863 5.10626 3.59988 5.12501 3.438 5.29376C3.26925 5.46251 3.2505 5.73126 3.39363 5.91876L3.4755 6.00001L6.31925 8.21876C6.66925 8.49376 7.09363 8.64376 7.538 8.64376C7.98113 8.64376 8.413 8.49376 8.76238 8.21876L11.5818 5.96251Z" fill="white"/>
</svg>
