<svg width="15" height="15" viewBox="0 0 15 15" fill="none" xmlns="http://www.w3.org/2000/svg">
<path d="M3.75 6.5625C3.23223 6.5625 2.8125 6.98223 2.8125 7.5C2.8125 8.01777 3.23223 8.4375 3.75 8.4375C4.26777 8.4375 4.6875 8.01777 4.6875 7.5C4.6875 6.98223 4.26777 6.5625 3.75 6.5625Z" fill="white"/>
<path d="M6.5625 7.5C6.5625 6.98223 6.98223 6.5625 7.5 6.5625C8.01777 6.5625 8.4375 6.98223 8.4375 7.5C8.4375 8.01777 8.01777 8.4375 7.5 8.4375C6.98223 8.4375 6.5625 8.01777 6.5625 7.5Z" fill="white"/>
<path d="M10.3125 7.5C10.3125 6.98223 10.7322 6.5625 11.25 6.5625C11.7678 6.5625 12.1875 6.98223 12.1875 7.5C12.1875 8.01777 11.7678 8.4375 11.25 8.4375C10.7322 8.4375 10.3125 8.01777 10.3125 7.5Z" fill="white"/>
</svg>
