<svg width="20" height="20" viewBox="0 0 20 20" fill="none" xmlns="http://www.w3.org/2000/svg">
<path fill-rule="evenodd" clip-rule="evenodd" d="M13.8876 1.67536C15.0864 1.60044 16.2685 2.01667 17.1592 2.8325C17.9751 3.72324 18.3913 4.90535 18.3247 6.11244V13.8877C18.3996 15.0948 17.9751 16.2769 17.1675 17.1677C16.2768 17.9835 15.0864 18.3997 13.8876 18.3248H6.11223C4.90513 18.3997 3.72301 17.9835 2.83226 17.1677C2.01643 16.2769 1.60019 15.0948 1.67512 13.8877V6.11244C1.60019 4.90535 2.01643 3.72324 2.83226 2.8325C3.72301 2.01667 4.90513 1.60044 6.11223 1.67536H13.8876ZM9.15079 14.0376L14.7534 8.41839C15.2612 7.90225 15.2612 7.06978 14.7534 6.56197L13.6712 5.47976C13.155 4.96363 12.3225 4.96363 11.8064 5.47976L11.2486 6.04584C11.1654 6.12909 11.1654 6.27061 11.2486 6.35386C11.2486 6.35386 12.5723 7.66916 12.5973 7.70246C12.6888 7.80236 12.7471 7.93555 12.7471 8.0854C12.7471 8.38509 12.5057 8.63483 12.1977 8.63483C12.0561 8.63483 11.9229 8.57656 11.8314 8.48498L10.4411 7.10308C10.3745 7.03648 10.258 7.03648 10.1914 7.10308L6.22047 11.074C5.94575 11.3487 5.78758 11.715 5.77925 12.1062L5.7293 14.0792C5.7293 14.1874 5.7626 14.2873 5.83753 14.3622C5.91245 14.4372 6.01235 14.4788 6.12057 14.4788H8.07689C8.47648 14.4788 8.85942 14.3206 9.15079 14.0376Z" fill="white"/>
</svg>
