<svg width="20" height="20" viewBox="0 0 20 20" fill="none" xmlns="http://www.w3.org/2000/svg">
<path d="M7.61223 17.311V14.7629C7.61223 14.1124 8.14339 13.5851 8.79861 13.5851H11.1938C11.5084 13.5851 11.8102 13.7092 12.0327 13.9301C12.2551 14.1509 12.3801 14.4505 12.3801 14.7629V17.311C12.3782 17.5814 12.485 17.8414 12.6769 18.0333C12.8688 18.2252 13.13 18.3332 13.4024 18.3332H15.0364C15.7996 18.3351 16.5322 18.0355 17.0726 17.5005C17.6129 16.9655 17.9166 16.239 17.9166 15.4814V8.22222C17.9166 7.61022 17.6433 7.02971 17.1704 6.63706L11.6116 2.22973C10.6446 1.45697 9.25918 1.48192 8.32108 2.28899L2.8891 6.63706C2.39387 7.01813 2.09788 7.60037 2.08325 8.22222V15.474C2.08325 17.053 3.37274 18.3332 4.9634 18.3332H6.56016C7.12594 18.3332 7.58575 17.88 7.58985 17.3184L7.61223 17.311Z" fill="white"/>
</svg>
