<svg width="20" height="20" viewBox="0 0 20 20" fill="none" xmlns="http://www.w3.org/2000/svg">
<path fill-rule="evenodd" clip-rule="evenodd" d="M1.6665 9.99947C1.6665 5.4003 5.39984 1.66614 9.99984 1.66614C14.6082 1.66614 18.3332 5.4003 18.3332 9.99947C18.3332 14.6003 14.6082 18.3328 9.99984 18.3328C5.39984 18.3328 1.6665 14.6003 1.6665 9.99947ZM9.26651 6.84112C9.26651 6.44196 9.59984 6.10779 9.99984 6.10779C10.3998 6.10779 10.7248 6.44196 10.7248 6.84112V10.5245C10.7248 10.9253 10.3998 11.2495 9.99984 11.2495C9.59984 11.2495 9.26651 10.9253 9.26651 10.5245V6.84112ZM10.0082 13.9003C9.59984 13.9003 9.27484 13.567 9.27484 13.167C9.27484 12.767 9.59984 12.442 9.99984 12.442C10.4082 12.442 10.7332 12.767 10.7332 13.167C10.7332 13.567 10.4082 13.9003 10.0082 13.9003Z" fill="#F73859"/>
</svg>
