<svg width="20" height="20" viewBox="0 0 20 20" fill="none" xmlns="http://www.w3.org/2000/svg">
<path fill-rule="evenodd" clip-rule="evenodd" d="M11.7538 9.35841C12.1184 9.35841 12.4067 9.64175 12.4067 10.0001C12.4067 10.3501 12.1184 10.6417 11.7538 10.6417H6.66658V14.6251C6.66658 16.6667 8.35384 18.3334 10.4396 18.3334H14.5687C16.646 18.3334 18.3333 16.6751 18.3333 14.6334V5.37508C18.3333 3.32508 16.6375 1.66675 14.5602 1.66675H10.4226C8.35384 1.66675 6.66658 3.32508 6.66658 5.36675V9.35841H11.7538ZM3.64138 7.11692L1.20805 9.54192C1.08305 9.66692 1.01638 9.82525 1.01638 10.0003C1.01638 10.1669 1.08305 10.3336 1.20805 10.4503L3.64138 12.8753C3.76638 13.0003 3.93305 13.0669 4.09138 13.0669C4.25805 13.0669 4.42472 13.0003 4.54972 12.8753C4.79972 12.6253 4.79972 12.2169 4.54972 11.9669L3.21638 10.6419H6.66638V9.35859H3.21638L4.54972 8.03359C4.79972 7.78359 4.79972 7.37525 4.54972 7.12525C4.29972 6.86692 3.89138 6.86692 3.64138 7.11692Z" fill="white"/>
</svg>
