<svg width="20" height="20" viewBox="0 0 20 20" fill="none" xmlns="http://www.w3.org/2000/svg">
<path fill-rule="evenodd" clip-rule="evenodd" d="M1.66675 8.89159C1.66675 4.90137 4.86703 1.66666 8.81478 1.66666C10.7106 1.66666 12.5287 2.42785 13.8692 3.78279C15.2097 5.13773 15.9628 6.97542 15.9628 8.89159C15.9628 12.8818 12.7625 16.1165 8.81478 16.1165C4.86703 16.1165 1.66675 12.8818 1.66675 8.89159ZM15.8445 14.7119L17.9734 16.4303H18.0104C18.4411 16.8657 18.4411 17.5715 18.0104 18.0068C17.5797 18.4422 16.8814 18.4422 16.4507 18.0068L14.684 15.982C14.517 15.8138 14.4231 15.5853 14.4231 15.347C14.4231 15.1086 14.517 14.8801 14.684 14.7119C15.0061 14.392 15.5224 14.392 15.8445 14.7119Z" fill="#E0E0E0"/>
</svg>
