<svg width="20" height="20" viewBox="0 0 20 20" fill="none" xmlns="http://www.w3.org/2000/svg">
<path fill-rule="evenodd" clip-rule="evenodd" d="M8.92012 2.93231C8.36151 2.93231 7.88627 3.32049 7.75287 3.8437H12.2384C12.105 3.32049 11.6298 2.93231 11.0712 2.93231H8.92012ZM13.5058 3.84371H15.1566C16.9075 3.84371 18.3332 5.28674 18.3332 7.05888C18.3332 7.05888 18.2831 7.80909 18.2665 8.85381C18.2648 8.93651 18.2248 9.01752 18.1589 9.06647C17.7579 9.36267 17.391 9.60739 17.3577 9.62427C15.9737 10.5525 14.3654 11.2057 12.652 11.5306C12.5403 11.5525 12.4302 11.4943 12.3735 11.3947C11.8933 10.5627 10.9962 10.0209 9.99567 10.0209C9.00184 10.0209 8.09639 10.5568 7.60197 11.3897C7.54444 11.4876 7.43606 11.5441 7.32517 11.523C5.62598 11.1973 4.01768 10.5449 2.64199 9.63271L1.84159 9.07575C1.77489 9.03355 1.7332 8.95761 1.7332 8.87322C1.70819 8.44284 1.6665 7.05888 1.6665 7.05888C1.6665 5.28674 3.09222 3.84371 4.84309 3.84371H6.48558C6.64399 2.62009 7.66951 1.6665 8.92013 1.6665H11.0712C12.3218 1.6665 13.3473 2.62009 13.5058 3.84371ZM18.0497 10.6792L18.0163 10.6961C16.3322 11.8269 14.3061 12.5779 12.1801 12.8901C11.8799 12.9323 11.5798 12.7382 11.4964 12.4345C11.313 11.7425 10.721 11.2868 10.0123 11.2868H10.004H9.98732C9.27863 11.2868 8.68667 11.7425 8.50325 12.4345C8.41987 12.7382 8.11972 12.9323 7.81957 12.8901C5.69351 12.5779 3.6675 11.8269 1.98332 10.6961C1.97498 10.6876 1.89161 10.637 1.82491 10.6792C1.74987 10.7214 1.74987 10.8226 1.74987 10.8226L1.80823 15.1264C1.80823 16.8986 3.22561 18.3332 4.97648 18.3332H15.0148C16.7657 18.3332 18.1831 16.8986 18.1831 15.1264L18.2498 10.8226C18.2498 10.8226 18.2498 10.7214 18.1747 10.6792C18.1331 10.6539 18.083 10.6623 18.0497 10.6792ZM10.621 14.215C10.621 14.5695 10.3458 14.848 9.99567 14.848C9.65383 14.848 9.37036 14.5695 9.37036 14.215V13.1264C9.37036 12.7805 9.65383 12.4935 9.99567 12.4935C10.3458 12.4935 10.621 12.7805 10.621 13.1264V14.215Z" fill="white"/>
</svg>
