<svg width="30" height="30" viewBox="0 0 30 30" fill="none" xmlns="http://www.w3.org/2000/svg">
<rect x="6" y="4.80005" width="18" height="19.2" fill="white"/>
<path d="M17.2705 11.0268H14.5799V20.0391H17.3613C21.3234 20.0391 22.2316 17.0309 22.2316 15.5326C22.2316 13.0928 20.6766 11.0268 17.2705 11.0268ZM15 0.46875C6.97266 0.46875 0.46875 6.97266 0.46875 15C0.46875 23.0273 6.97266 29.5312 15 29.5312C23.0273 29.5312 29.5312 23.0273 29.5312 15C29.5312 6.97266 23.0273 0.46875 15 0.46875ZM10.2662 21.607H8.51777V9.44883H10.2662V21.607ZM9.39199 8.06367C9.1652 8.06367 8.9435 7.99642 8.75493 7.87042C8.56636 7.74442 8.41939 7.56534 8.3326 7.35581C8.24581 7.14628 8.2231 6.91572 8.26735 6.69329C8.31159 6.47085 8.4208 6.26653 8.58117 6.10617C8.74153 5.9458 8.94585 5.83659 9.16829 5.79235C9.39072 5.7481 9.62128 5.77081 9.83081 5.8576C10.0403 5.94439 10.2194 6.09136 10.3454 6.27993C10.4714 6.4685 10.5387 6.6902 10.5387 6.91699C10.5376 7.22078 10.4164 7.51181 10.2016 7.72662C9.98681 7.94143 9.69578 8.06259 9.39199 8.06367ZM17.5781 21.6211H12.832V9.44883H17.5547C22.0506 9.44883 24.0258 12.6615 24.0258 15.5338C24.0234 18.6557 21.5848 21.6211 17.5781 21.6211Z" fill="white"/>
<path d="M17.2705 11.0268H14.5799V20.0391H17.3613C21.3234 20.0391 22.2316 17.0309 22.2316 15.5326C22.2316 13.0928 20.6766 11.0268 17.2705 11.0268ZM15 0.46875C6.97266 0.46875 0.46875 6.97266 0.46875 15C0.46875 23.0273 6.97266 29.5312 15 29.5312C23.0273 29.5312 29.5312 23.0273 29.5312 15C29.5312 6.97266 23.0273 0.46875 15 0.46875ZM10.2662 21.607H8.51777V9.44883H10.2662V21.607ZM9.39199 8.06367C9.1652 8.06367 8.9435 7.99642 8.75493 7.87042C8.56636 7.74442 8.41939 7.56534 8.3326 7.35581C8.24581 7.14628 8.2231 6.91572 8.26735 6.69329C8.31159 6.47085 8.4208 6.26653 8.58117 6.10617C8.74153 5.9458 8.94585 5.83659 9.16829 5.79235C9.39072 5.7481 9.62128 5.77081 9.83081 5.8576C10.0403 5.94439 10.2194 6.09136 10.3454 6.27993C10.4714 6.4685 10.5387 6.6902 10.5387 6.91699C10.5376 7.22078 10.4164 7.51181 10.2016 7.72662C9.98681 7.94143 9.69578 8.06259 9.39199 8.06367ZM17.5781 21.6211H12.832V9.44883H17.5547C22.0506 9.44883 24.0258 12.6615 24.0258 15.5338C24.0234 18.6557 21.5848 21.6211 17.5781 21.6211Z" fill="#A6CE39"/>
</svg>
